<?xml version="1.0" encoding="utf-8"?>
<!-- Generator: Adobe Illustrator 24.0.2, SVG Export Plug-In . SVG Version: 6.00 Build 0)  -->
<svg version="1.1" id="cds-medals" xmlns="http://www.w3.org/2000/svg" xmlns:xlink="http://www.w3.org/1999/xlink" x="0px" y="0px"
	 viewBox="0 0 286 88" style="enable-background:new 0 0 286 88;" xml:space="preserve">
<style type="text/css">
	#cds-medals .st0{fill:#868686;stroke:#1D1D1B;stroke-width:1.1407;stroke-miterlimit:10;}
	#cds-medals .st1{fill:none;stroke:#1D1D1B;stroke-width:1.1407;stroke-miterlimit:10;}
	#cds-medals .st2{fill:#1D1D1B;}
	#cds-medals .st3{fill:none;stroke:#1D1D1B;stroke-width:0.9891;stroke-miterlimit:10;}
	#cds-medals .st4{fill:#839EC6;stroke:#000000;stroke-miterlimit:10;}
	#cds-medals .st5{fill:#ECE557;}
	#cds-medals .st6{fill:#41489E;}
	#cds-medals .st7{fill:#00A162;stroke:#1D1D1B;stroke-width:0.9891;stroke-miterlimit:10;}
	#cds-medals .st8{fill:none;stroke:#1D1D1B;stroke-width:0.4945;stroke-miterlimit:10;}
	#cds-medals .st9{fill:#222160;stroke:#1D1D1B;stroke-miterlimit:10;}
	#cds-medals .st10{fill:#6586C4;}
	#cds-medals .st11{fill:#ED1C24;}
	#cds-medals .st12{fill:#868686;stroke:#1D1D1B;stroke-width:1.1506;stroke-miterlimit:10;}
	#cds-medals .st13{fill:none;stroke:#1D1D1B;stroke-width:1.1506;stroke-miterlimit:10;}
	#cds-medals .st14{fill:none;stroke:#1D1D1B;stroke-width:0.9976;stroke-miterlimit:10;}
	#cds-medals .st15{fill:#F79341;stroke:#1D1D1B;stroke-width:0.9891;stroke-miterlimit:10;}
	#cds-medals .st16{fill:#26266C;}
	#cds-medals .st17{fill:#719DD3;}
	#cds-medals .st18{fill:#E1BD68;stroke:#1D1D1B;stroke-miterlimit:10;}
	#cds-medals .st19{fill:#FFFFFF;}
	#cds-medals .st20{fill:#F2912E;}
	#cds-medals .st21{fill:#146E38;}
	#cds-medals .st22{fill:#505F86;stroke:#1D1D1B;stroke-width:0.9976;stroke-miterlimit:10;}
	#cds-medals .st23{fill:none;stroke:#FFFFFF;stroke-width:1.1503;stroke-miterlimit:10;}
	#cds-medals .st24{fill:#759AD1;stroke:#1D1D1B;stroke-miterlimit:10;}
	#cds-medals .st25{fill:#EF8722;stroke:#1D1D1B;stroke-width:0.9891;stroke-miterlimit:10;}
	#cds-medals .st26{fill:none;stroke:#1F3A22;stroke-miterlimit:10;}
	#cds-medals .st27{fill:none;stroke:#D0D0D0;stroke-miterlimit:10;}
	#cds-medals .st28{fill:#38795E;stroke:#000000;stroke-miterlimit:10;}
	#cds-medals .st29{fill:#8AB2CC;}
	#cds-medals .st30{fill:#F3F3F3;}
	#cds-medals .st31{fill:#CF2026;}
	#cds-medals .st32{fill:#AA9274;}
	#cds-medals .st33{fill:#7E92A4;stroke:#000000;stroke-miterlimit:10;}
	#cds-medals .st34{fill:#066634;stroke:#000000;stroke-miterlimit:10;}
	#cds-medals .st35{clip-path:url(#SVGID_1_);fill:#5F8BC8;}
	#cds-medals .st36{clip-path:url(#SVGID_1_);fill:#26266C;}
	#cds-medals .st37{clip-path:url(#SVGID_1_);fill:#CF2026;}
	#cds-medals .st38{fill:#F3F3F3;stroke:#000000;stroke-miterlimit:10;}
	#cds-medals .st39{fill:#8B2B3C;}
	#cds-medals .st40{fill:#FEEC5E;stroke:#1D1D1B;stroke-width:0.9891;stroke-miterlimit:10;}
	#cds-medals .st41{fill:none;stroke:#2A2665;stroke-miterlimit:10;}
	#cds-medals .st42{fill:#D02327;stroke:#000000;stroke-miterlimit:10;}
	#cds-medals .st43{fill:none;stroke:#CCCCCB;stroke-width:2;stroke-miterlimit:10;}
	#cds-medals .st44{fill:#B17F4A;stroke:#1D1D1B;stroke-width:1.1407;stroke-miterlimit:10;}
	#cds-medals .st45{fill:none;stroke:#D45627;stroke-miterlimit:10;}
	#cds-medals .st46{fill:#F7B132;stroke:#F19220;stroke-width:0.1983;stroke-linecap:round;stroke-linejoin:round;stroke-miterlimit:10;}
	#cds-medals .st47{fill:none;stroke:#F19220;stroke-width:0.1983;stroke-linecap:round;stroke-linejoin:round;stroke-miterlimit:10;}
	#cds-medals .st48{fill:#B2B2B2;stroke:#1D1D1B;stroke-width:1.1407;stroke-miterlimit:10;}
	#cds-medals .st49{fill:#F7B132;stroke:#1D1D1B;stroke-width:0.9891;stroke-miterlimit:10;}
	#cds-medals .st50{fill:#D9D9D8;stroke:#868686;stroke-width:0.1983;stroke-linecap:round;stroke-linejoin:round;stroke-miterlimit:10;}
	#cds-medals .st51{fill:none;stroke:#868686;stroke-width:0.1983;stroke-linecap:round;stroke-linejoin:round;stroke-miterlimit:10;}
	#cds-medals .st52{fill:#E65125;stroke:#1D1D1B;stroke-width:1.1407;stroke-miterlimit:10;}
</style>
<g class="all-medals monusco" data-medal="monusco">
	<circle class="st0" cx="264" cy="68.8" r="11.6"/>
	<line class="st1" x1="248.4" y1="47.6" x2="279.6" y2="47.6"/>
	<line class="st1" x1="264" y1="47.8" x2="264" y2="53.1"/>
	<circle class="st2" cx="248.7" cy="47.6" r="1.3"/>
	<circle class="st2" cx="279.1" cy="47.6" r="1.3"/>
	<path class="st3" d="M258.8,58.9l0-2.8c0-0.8,0.7-1.5,1.5-1.5l7.5,0c0.8,0,1.5,0.7,1.5,1.5l0,2.4"/>
	<path class="st2" d="M266.3,49.1l-4.5,0c-0.2,0-0.4-0.2-0.4-0.4l0-2.3c0-0.2,0.2-0.4,0.4-0.4l4.5,0c0.2,0,0.4,0.2,0.4,0.4l0,2.3
		C266.6,48.9,266.5,49.1,266.3,49.1z"/>
	<path class="st2" d="M266,55.8l-4.1,0c-0.3,0-0.6-0.3-0.6-0.6l0-3.8c0-0.3,0.3-0.6,0.6-0.6l4.1,0c0.3,0,0.6,0.3,0.6,0.6l0,3.8
		C266.7,55.6,266.4,55.8,266,55.8z"/>
	<path class="st4" d="M249.8,44.7l28.1,0c0,0-1.6-22.9,0.2-36.7l-28.8,0C249.3,8.1,247.7,30.8,249.8,44.7z"/>
	<path class="st2" d="M247.7,46.1l0-3.7c0-0.1,0.1-0.2,0.2-0.2l1.5,0c0.1,0,0.2,0.1,0.2,0.2l0,3.7c0,0.1-0.1,0.2-0.2,0.2l-1.5,0
		C247.8,46.3,247.7,46.2,247.7,46.1z"/>
	<path class="st2" d="M278.1,46l0-3.7c0-0.1,0.1-0.2,0.2-0.2l1.5,0c0.1,0,0.2,0.1,0.2,0.2l0,3.7c0,0.1-0.1,0.2-0.2,0.2l-1.5,0
		C278.2,46.3,278.1,46.2,278.1,46z"/>
	<path class="st5" d="M268.1,8.5l1.8-0.1c0,0-0.4,33.2,0.4,35.8l-2.3-0.1C268.1,44.2,267.5,9.4,268.1,8.5z"/>
	<path class="st5" d="M257,8.7l1.8-0.1c0,0-0.4,33,0.4,35.5l-2.4,0C256.8,44.2,256.3,9.6,257,8.7z"/>
	<polygon class="st6" points="258.8,8.7 258.8,43.9 268.1,44.2 268.1,8.5 	"/>
</g>
<g class="all-medals nineyears" data-medal="nineyears">
	<g>
		<circle class="st0" cx="248.2" cy="68.8" r="11.6"/>
		<line class="st1" x1="232.6" y1="47.6" x2="263.8" y2="47.6"/>
		<line class="st1" x1="248.2" y1="47.8" x2="248.2" y2="53.1"/>
		<circle class="st2" cx="232.8" cy="47.6" r="1.3"/>
		<circle class="st2" cx="263.3" cy="47.6" r="1.3"/>
		<path class="st3" d="M242.9,58.9l0-2.8c0-0.8,0.7-1.5,1.5-1.5l7.5,0c0.8,0,1.5,0.7,1.5,1.5l0,2.4"/>
		<path class="st2" d="M250.5,49.1l-4.5,0c-0.2,0-0.4-0.2-0.4-0.4l0-2.3c0-0.2,0.2-0.4,0.4-0.4l4.5,0c0.2,0,0.4,0.2,0.4,0.4l0,2.3
			C250.8,48.9,250.7,49.1,250.5,49.1z"/>
		<path class="st2" d="M250.2,55.8l-4.1,0c-0.3,0-0.6-0.3-0.6-0.6l0-3.8c0-0.3,0.3-0.6,0.6-0.6l4.1,0c0.3,0,0.6,0.3,0.6,0.6l0,3.8
			C250.8,55.6,250.6,55.8,250.2,55.8z"/>
		<path class="st7" d="M234,44.7l28.1,0c0,0-1.6-22.9,0.2-36.7l-28.8,0C233.5,8.1,231.8,30.8,234,44.7z"/>
		<path class="st2" d="M231.8,46.1l0-3.7c0-0.1,0.1-0.2,0.2-0.2l1.5,0c0.1,0,0.2,0.1,0.2,0.2l0,3.7c0,0.1-0.1,0.2-0.2,0.2l-1.5,0
			C231.9,46.3,231.8,46.2,231.8,46.1z"/>
		<path class="st2" d="M262.3,46l0-3.7c0-0.1,0.1-0.2,0.2-0.2l1.5,0c0.1,0,0.2,0.1,0.2,0.2l0,3.7c0,0.1-0.1,0.2-0.2,0.2l-1.5,0
			C262.4,46.3,262.3,46.2,262.3,46z"/>
	</g>
	<g>
		<path class="st8" d="M258.1,44.7c0,0-1.6-22.9,0.2-36.7"/>
		<path class="st8" d="M253.9,44.7c0,0-1.6-22.9,0.2-36.7"/>
		<path class="st8" d="M249.6,44.7c0,0-1.6-22.9,0.2-36.7"/>
		<path class="st8" d="M245.3,44.7c0,0-1.6-22.9,0.2-36.7"/>
		<path class="st8" d="M241,44.7c0,0-1.6-22.9,0.2-36.7"/>
		<path class="st8" d="M236.8,44.7c0,0-1.6-22.9,0.2-36.7"/>
	</g>
</g>
<g class="all-medals twentyyears" data-medal="twentyyears">
	<circle class="st0" cx="235.9" cy="68.8" r="11.6"/>
	<line class="st1" x1="220.3" y1="47.6" x2="251.5" y2="47.6"/>
	<line class="st1" x1="235.9" y1="47.8" x2="235.9" y2="53.1"/>
	<circle class="st2" cx="220.5" cy="47.6" r="1.3"/>
	<circle class="st2" cx="251" cy="47.6" r="1.3"/>
	<path class="st3" d="M230.6,58.9l0-2.8c0-0.8,0.7-1.5,1.5-1.5l7.5,0c0.8,0,1.5,0.7,1.5,1.5l0,2.4"/>
	<path class="st2" d="M238.2,49.1l-4.5,0c-0.2,0-0.4-0.2-0.4-0.4l0-2.3c0-0.2,0.2-0.4,0.4-0.4l4.5,0c0.2,0,0.4,0.2,0.4,0.4l0,2.3
		C238.5,48.9,238.4,49.1,238.2,49.1z"/>
	<path class="st2" d="M237.9,55.8l-4.1,0c-0.3,0-0.6-0.3-0.6-0.6l0-3.8c0-0.3,0.3-0.6,0.6-0.6l4.1,0c0.3,0,0.6,0.3,0.6,0.6l0,3.8
		C238.5,55.6,238.3,55.8,237.9,55.8z"/>
	<path class="st9" d="M221.7,44.7l28.1,0c0,0-1.6-22.9,0.2-36.7l-28.8,0C221.2,8.1,219.5,30.8,221.7,44.7z"/>
	<path class="st2" d="M219.5,46.1l0-3.7c0-0.1,0.1-0.2,0.2-0.2l1.5,0c0.1,0,0.2,0.1,0.2,0.2l0,3.7c0,0.1-0.1,0.2-0.2,0.2l-1.5,0
		C219.6,46.3,219.5,46.2,219.5,46.1z"/>
	<path class="st2" d="M250,46l0-3.7c0-0.1,0.1-0.2,0.2-0.2l1.5,0c0.1,0,0.2,0.1,0.2,0.2l0,3.7c0,0.1-0.1,0.2-0.2,0.2l-1.5,0
		C250.1,46.3,250,46.2,250,46z"/>
	<path class="st10" d="M240.6,8.5c0,0-1.3,6.5-1.3,16.3c0,5.7,0.9,12,1.3,19.3l8.5,0c0,0-1-32.4,0.6-35.7L240.6,8.5z"/>
	<path class="st11" d="M221.6,8.4l8.4,0.1c0,0-1,11.1-0.9,16.5c0,5.4,1.5,19.2,1.5,19.2l-8.6,0.1C222.1,44.3,219.9,20.9,221.6,8.4z"
		/>
</g>
<g class="all-medals thirtyyears" data-medal="thirtyyears">
	<circle class="st12" cx="225.2" cy="69" r="11.7"/>
	<line class="st13" x1="209.5" y1="47.6" x2="240.9" y2="47.6"/>
	<line class="st13" x1="225.2" y1="47.9" x2="225.2" y2="53.2"/>
	<circle class="st2" cx="209.7" cy="47.6" r="1.3"/>
	<circle class="st2" cx="240.5" cy="47.6" r="1.3"/>
	<path class="st14" d="M219.9,59l0-2.8c0-0.8,0.7-1.5,1.5-1.5l7.6,0c0.8,0,1.5,0.7,1.5,1.5l0,2.5"/>
	<path class="st2" d="M227.5,49.1l-4.6,0c-0.2,0-0.4-0.2-0.4-0.4l0-2.4c0-0.2,0.2-0.4,0.4-0.4l4.6,0c0.2,0,0.4,0.2,0.4,0.4l0,2.4
		C227.9,49,227.7,49.1,227.5,49.1z"/>
	<path class="st2" d="M227.3,55.9l-4.1,0c-0.3,0-0.6-0.3-0.6-0.6l0-3.9c0-0.3,0.3-0.6,0.6-0.6l4.1,0c0.3,0,0.6,0.3,0.6,0.6l0,3.9
		C227.9,55.7,227.6,55.9,227.3,55.9z"/>
	<path class="st15" d="M210.9,44.7l28.4,0c0,0-1.6-23.1,0.2-37l-29.1,0C210.4,7.8,208.7,30.6,210.9,44.7z"/>
	<path class="st2" d="M208.7,46.1l0-3.7c0-0.1,0.1-0.2,0.2-0.2l1.5,0c0.1,0,0.2,0.1,0.2,0.2l0,3.7c0,0.1-0.1,0.2-0.2,0.2l-1.5,0
		C208.8,46.3,208.7,46.2,208.7,46.1z"/>
	<path class="st2" d="M239.4,46l0-3.7c0-0.1,0.1-0.2,0.2-0.2l1.5,0c0.1,0,0.2,0.1,0.2,0.2l0,3.7c0,0.1-0.1,0.2-0.2,0.2l-1.5,0
		C239.6,46.3,239.4,46.2,239.4,46z"/>
	
		<rect x="222.9" y="8.2" transform="matrix(1 -3.782037e-03 3.782037e-03 1 -9.730218e-02 0.8494)" class="st16" width="3.2" height="35.9"/>
	
		<rect x="219.9" y="8.3" transform="matrix(1 -3.782037e-03 3.782037e-03 1 -9.773749e-02 0.8378)" class="st11" width="3.2" height="35.9"/>
	
		<rect x="226.1" y="8.2" transform="matrix(1 -3.782037e-03 3.782037e-03 1 -9.741983e-02 0.8614)" class="st17" width="3.2" height="35.9"/>
</g>
<g class="all-medals ii50" data-medal="ii50">
	<circle class="st12" cx="211.2" cy="69" r="11.7"/>
	<line class="st13" x1="195.5" y1="47.6" x2="226.9" y2="47.6"/>
	<line class="st13" x1="211.2" y1="47.9" x2="211.2" y2="53.2"/>
	<circle class="st2" cx="195.7" cy="47.6" r="1.3"/>
	<circle class="st2" cx="226.5" cy="47.6" r="1.3"/>
	<path class="st14" d="M205.9,59l0-2.8c0-0.8,0.7-1.5,1.5-1.5l7.6,0c0.8,0,1.5,0.7,1.5,1.5l0,2.5"/>
	<path class="st2" d="M213.5,49.1l-4.6,0c-0.2,0-0.4-0.2-0.4-0.4l0-2.4c0-0.2,0.2-0.4,0.4-0.4l4.6,0c0.2,0,0.4,0.2,0.4,0.4l0,2.4
		C213.9,49,213.7,49.1,213.5,49.1z"/>
	<path class="st2" d="M213.3,55.9l-4.1,0c-0.3,0-0.6-0.3-0.6-0.6l0-3.9c0-0.3,0.3-0.6,0.6-0.6l4.1,0c0.3,0,0.6,0.3,0.6,0.6l0,3.9
		C213.9,55.7,213.6,55.9,213.3,55.9z"/>
	<path class="st18" d="M196.9,44.7l28.4,0c0,0-1.6-23.1,0.2-37l-29.1,0C196.4,7.8,194.7,30.6,196.9,44.7z"/>
	<path class="st2" d="M194.7,46.1l0-3.7c0-0.1,0.1-0.2,0.2-0.2l1.5,0c0.1,0,0.2,0.1,0.2,0.2l0,3.7c0,0.1-0.1,0.2-0.2,0.2l-1.5,0
		C194.8,46.3,194.7,46.2,194.7,46.1z"/>
	<path class="st2" d="M225.5,46l0-3.7c0-0.1,0.1-0.2,0.2-0.2l1.5,0c0.1,0,0.2,0.1,0.2,0.2l0,3.7c0,0.1-0.1,0.2-0.2,0.2l-1.5,0
		C225.6,46.3,225.5,46.2,225.5,46z"/>
	
		<rect x="208.9" y="8.2" transform="matrix(1 -3.782037e-03 3.782037e-03 1 -9.740226e-02 0.7964)" class="st19" width="3.2" height="35.9"/>
	
		<rect x="205.9" y="8.3" transform="matrix(1 -3.782037e-03 3.782037e-03 1 -9.783757e-02 0.7849)" class="st20" width="3.2" height="35.9"/>
	
		<rect x="212.1" y="8.2" transform="matrix(1 -3.782037e-03 3.782037e-03 1 -9.751991e-02 0.8085)" class="st21" width="3.2" height="35.9"/>
</g>
<g class="all-medals vsm2" data-medal="vsm2">
	<circle class="st12" cx="196.9" cy="69" r="11.7"/>
	<line class="st13" x1="181.2" y1="47.6" x2="212.6" y2="47.6"/>
	<line class="st13" x1="196.9" y1="47.9" x2="196.9" y2="53.2"/>
	<circle class="st2" cx="181.4" cy="47.6" r="1.3"/>
	<circle class="st2" cx="212.1" cy="47.6" r="1.3"/>
	<path class="st14" d="M191.6,59l0-2.8c0-0.8,0.7-1.5,1.5-1.5l7.6,0c0.8,0,1.5,0.7,1.5,1.5l0,2.5"/>
	<path class="st2" d="M199.2,49.1l-4.6,0c-0.2,0-0.4-0.2-0.4-0.4l0-2.4c0-0.2,0.2-0.4,0.4-0.4l4.6,0c0.2,0,0.4,0.2,0.4,0.4l0,2.4
		C199.5,49,199.4,49.1,199.2,49.1z"/>
	<path class="st2" d="M198.9,55.9l-4.1,0c-0.3,0-0.6-0.3-0.6-0.6l0-3.9c0-0.3,0.3-0.6,0.6-0.6l4.1,0c0.3,0,0.6,0.3,0.6,0.6l0,3.9
		C199.5,55.7,199.3,55.9,198.9,55.9z"/>
	<path class="st22" d="M182.5,44.7l28.4,0c0,0-1.6-23.1,0.2-37l-29.1,0C182,7.8,180.4,30.6,182.5,44.7z"/>
	<path class="st2" d="M180.4,46.1l0-3.7c0-0.1,0.1-0.2,0.2-0.2l1.5,0c0.1,0,0.2,0.1,0.2,0.2l0,3.7c0,0.1-0.1,0.2-0.2,0.2l-1.5,0
		C180.5,46.3,180.4,46.2,180.4,46.1z"/>
	<path class="st2" d="M211.1,46l0-3.7c0-0.1,0.1-0.2,0.2-0.2l1.5,0c0.1,0,0.2,0.1,0.2,0.2l0,3.7c0,0.1-0.1,0.2-0.2,0.2l-1.5,0
		C211.2,46.3,211.1,46.2,211.1,46z"/>
	<path class="st23" d="M196.5,44.1c0,0-2.1-18.1,0-35.8"/>
	<path class="st23" d="M192.3,43.9c0,0-2.1-18.1,0-35.8"/>
	<path class="st23" d="M205.9,44.3c0,0-2.1-18.1,0-35.8"/>
	<path class="st23" d="M186.7,43.8c0,0-2.1-18.1,0-35.8"/>
	<path class="st23" d="M201,44.1c0,0-2.1-18.6,0-35.8"/>
</g>
<g class="all-medals hasm" data-medal="hasm">
	<circle class="st0" cx="182.3" cy="68.8" r="11.6"/>
	<line class="st1" x1="166.8" y1="47.6" x2="197.9" y2="47.6"/>
	<line class="st1" x1="182.3" y1="47.8" x2="182.3" y2="53.1"/>
	<circle class="st2" cx="167" cy="47.6" r="1.3"/>
	<circle class="st2" cx="197.4" cy="47.6" r="1.3"/>
	<path class="st3" d="M177.1,58.9l0-2.8c0-0.8,0.7-1.5,1.5-1.5l7.5,0c0.8,0,1.5,0.7,1.5,1.5l0,2.4"/>
	<path class="st2" d="M184.6,49.1l-4.5,0c-0.2,0-0.4-0.2-0.4-0.4l0-2.3c0-0.2,0.2-0.4,0.4-0.4l4.5,0c0.2,0,0.4,0.2,0.4,0.4l0,2.3
		C185,48.9,184.8,49.1,184.6,49.1z"/>
	<path class="st2" d="M184.4,55.8l-4.1,0c-0.3,0-0.6-0.3-0.6-0.6l0-3.8c0-0.3,0.3-0.6,0.6-0.6l4.1,0c0.3,0,0.6,0.3,0.6,0.6l0,3.8
		C185,55.6,184.7,55.8,184.4,55.8z"/>
	<path class="st24" d="M168.1,44.7l28.1,0c0,0-1.6-22.9,0.2-36.7l-28.8,0C167.6,8.1,166,30.8,168.1,44.7z"/>
	<path class="st2" d="M166,46.1l0-3.7c0-0.1,0.1-0.2,0.2-0.2l1.5,0c0.1,0,0.2,0.1,0.2,0.2l0,3.7c0,0.1-0.1,0.2-0.2,0.2l-1.5,0
		C166.1,46.3,166,46.2,166,46.1z"/>
	<path class="st2" d="M196.4,46l0-3.7c0-0.1,0.1-0.2,0.2-0.2l1.5,0c0.1,0,0.2,0.1,0.2,0.2l0,3.7c0,0.1-0.1,0.2-0.2,0.2l-1.5,0
		C196.5,46.3,196.4,46.2,196.4,46z"/>
	<g>
		<polygon class="st19" points="167.9,13.5 180.6,8.6 195.4,13.6 195.3,15.4 180.7,10.5 167.8,15.5 		"/>
	</g>
	<g>
		<polygon class="st19" points="167.6,20 180.4,15.2 195.1,20.1 195,21.9 180.4,17 167.5,22.1 		"/>
	</g>
	<g>
		<polygon class="st19" points="167.7,26 180.4,21.1 195.2,26.1 195.1,27.9 180.5,23 167.6,28 		"/>
	</g>
	<g>
		<polygon class="st19" points="167.7,32.3 180.6,27.5 195.2,32.3 195.3,34.2 180.6,29.3 167.8,34.2 		"/>
	</g>
	<g>
		<polygon class="st19" points="168.1,39 180.7,34.1 195.4,39.1 195.5,41 180.7,36 168.2,41.1 		"/>
	</g>
	<g>
		<polygon class="st19" points="172.2,44.2 181,40.4 192.3,44.2 189.7,44.3 181,41.8 175.2,44.3 		"/>
	</g>
</g>
<g class="all-medals ssm3" data-medal="ssm3">
	<circle class="st0" cx="168.6" cy="68.8" r="11.6"/>
	<line class="st1" x1="153" y1="47.6" x2="184.2" y2="47.6"/>
	<line class="st1" x1="168.6" y1="47.8" x2="168.6" y2="53.1"/>
	<circle class="st2" cx="153.2" cy="47.6" r="1.3"/>
	<circle class="st2" cx="183.7" cy="47.6" r="1.3"/>
	<path class="st3" d="M163.4,58.9l0-2.8c0-0.8,0.7-1.5,1.5-1.5l7.5,0c0.8,0,1.5,0.7,1.5,1.5l0,2.4"/>
	<path class="st2" d="M170.9,49.1l-4.5,0c-0.2,0-0.4-0.2-0.4-0.4l0-2.3c0-0.2,0.2-0.4,0.4-0.4l4.5,0c0.2,0,0.4,0.2,0.4,0.4l0,2.3
		C171.2,48.9,171.1,49.1,170.9,49.1z"/>
	<path class="st2" d="M170.6,55.8l-4.1,0c-0.3,0-0.6-0.3-0.6-0.6l0-3.8c0-0.3,0.3-0.6,0.6-0.6l4.1,0c0.3,0,0.6,0.3,0.6,0.6l0,3.8
		C171.2,55.6,171,55.8,170.6,55.8z"/>
	<path class="st25" d="M154.4,44.7l28.1,0c0,0-1.6-22.9,0.2-36.7l-28.8,0C153.9,8.1,152.3,30.8,154.4,44.7z"/>
	<path class="st2" d="M152.2,46.1l0-3.7c0-0.1,0.1-0.2,0.2-0.2l1.5,0c0.1,0,0.2,0.1,0.2,0.2l0,3.7c0,0.1-0.1,0.2-0.2,0.2l-1.5,0
		C152.4,46.3,152.2,46.2,152.2,46.1z"/>
	<path class="st2" d="M182.7,46l0-3.7c0-0.1,0.1-0.2,0.2-0.2l1.5,0c0.1,0,0.2,0.1,0.2,0.2l0,3.7c0,0.1-0.1,0.2-0.2,0.2l-1.5,0
		C182.8,46.3,182.7,46.2,182.7,46z"/>
	<path class="st26" d="M170.8,8.7c0,0-3.5,15.6-0.1,35.6"/>
	<path class="st27" d="M163.2,8.6c0,0-2.9,9.1-0.5,35.4"/>
</g>
<g class="all-medals opm" data-medal="opm">
	<circle class="st0" cx="153.6" cy="68.8" r="11.6"/>
	<line class="st1" x1="138" y1="47.6" x2="169.1" y2="47.6"/>
	<line class="st1" x1="153.5" y1="47.8" x2="153.6" y2="53.1"/>
	<circle class="st2" cx="138.2" cy="47.6" r="1.3"/>
	<circle class="st2" cx="168.7" cy="47.6" r="1.3"/>
	<path class="st3" d="M148.3,58.9l0-2.8c0-0.8,0.7-1.5,1.5-1.5l7.5,0c0.8,0,1.5,0.7,1.5,1.5l0,2.4"/>
	<path class="st2" d="M155.8,49.1l-4.5,0c-0.2,0-0.4-0.2-0.4-0.4l0-2.3c0-0.2,0.2-0.4,0.4-0.4l4.5,0c0.2,0,0.4,0.2,0.4,0.4l0,2.3
		C156.2,48.9,156,49.1,155.8,49.1z"/>
	<path class="st2" d="M155.6,55.8l-4.1,0c-0.3,0-0.6-0.3-0.6-0.6l0-3.8c0-0.3,0.3-0.6,0.6-0.6l4.1,0c0.3,0,0.6,0.3,0.6,0.6l0,3.8
		C156.2,55.6,155.9,55.8,155.6,55.8z"/>
	<path class="st28" d="M139.3,44.7l28.1,0c0,0-1.6-22.9,0.2-36.7l-28.8,0C138.8,8.1,137.2,30.8,139.3,44.7z"/>
	<path class="st2" d="M137.2,46.1l0-3.7c0-0.1,0.1-0.2,0.2-0.2l1.5,0c0.1,0,0.2,0.1,0.2,0.2l0,3.7c0,0.1-0.1,0.2-0.2,0.2l-1.5,0
		C137.3,46.3,137.2,46.2,137.2,46.1z"/>
	<path class="st2" d="M167.7,46l0-3.7c0-0.1,0.1-0.2,0.2-0.2l1.5,0c0.1,0,0.2,0.1,0.2,0.2l0,3.7c0,0.1-0.1,0.2-0.2,0.2l-1.5,0
		C167.8,46.3,167.7,46.2,167.7,46z"/>
	<path class="st29" d="M159.6,8.5c0,0-0.7,27.1,0.2,35.8l7-0.1c0,0-0.9-33.3,0.4-35.6L159.6,8.5z"/>
	<path class="st30" d="M157.7,8.5l1.8-0.1c0,0-0.4,33.2,0.4,35.8l-2.3-0.1C157.6,44.2,157.1,9.4,157.7,8.5z"/>
	<path class="st31" d="M146.5,8.7l1.8-0.1c0,0-0.4,33,0.4,35.5l-2.4,0C146.3,44.2,145.9,9.6,146.5,8.7z"/>
	<path class="st32" d="M146.5,8.7l-7.2-0.2c0,0-0.9,28.8,0.5,35.6l6.6,0C146.3,44.2,145.5,10.8,146.5,8.7z"/>
</g>
<g class="all-medals ssm2" data-medal="ssm2">
	<circle class="st0" cx="140" cy="68.8" r="11.6"/>
	<line class="st1" x1="124.4" y1="47.6" x2="155.5" y2="47.6"/>
	<line class="st1" x1="140" y1="47.8" x2="140" y2="53.1"/>
	<circle class="st2" cx="124.6" cy="47.6" r="1.3"/>
	<circle class="st2" cx="155.1" cy="47.6" r="1.3"/>
	<path class="st3" d="M134.7,58.9l0-2.8c0-0.8,0.7-1.5,1.5-1.5l7.5,0c0.8,0,1.5,0.7,1.5,1.5l0,2.4"/>
	<path class="st2" d="M142.2,49.1l-4.5,0c-0.2,0-0.4-0.2-0.4-0.4l0-2.3c0-0.2,0.2-0.4,0.4-0.4l4.5,0c0.2,0,0.4,0.2,0.4,0.4l0,2.3
		C142.6,48.9,142.4,49.1,142.2,49.1z"/>
	<path class="st2" d="M142,55.8l-4.1,0c-0.3,0-0.6-0.3-0.6-0.6l0-3.8c0-0.3,0.3-0.6,0.6-0.6l4.1,0c0.3,0,0.6,0.3,0.6,0.6l0,3.8
		C142.6,55.6,142.3,55.8,142,55.8z"/>
	<path class="st33" d="M125.8,44.7l28.1,0c0,0-1.6-22.9,0.2-36.7l-28.8,0C125.3,8.1,123.6,30.8,125.8,44.7z"/>
	<path class="st2" d="M123.6,46.1l0-3.7c0-0.1,0.1-0.2,0.2-0.2l1.5,0c0.1,0,0.2,0.1,0.2,0.2l0,3.7c0,0.1-0.1,0.2-0.2,0.2l-1.5,0
		C123.7,46.3,123.6,46.2,123.6,46.1z"/>
	<path class="st2" d="M154.1,46l0-3.7c0-0.1,0.1-0.2,0.2-0.2l1.5,0c0.1,0,0.2,0.1,0.2,0.2l0,3.7c0,0.1-0.1,0.2-0.2,0.2l-1.5,0
		C154.2,46.3,154.1,46.2,154.1,46z"/>
	<path class="st11" d="M144.6,8.5c0,0-0.9,15.9,0.1,35.7h8.9c0,0-1.4-32.5,0.2-35.8L144.6,8.5z"/>
	<path class="st11" d="M125.4,8.4l8.8,0.1c0,0-1,33.5,1.5,35.7l-9.6,0C126.2,44.3,124.2,25,125.4,8.4z"/>
</g>
<g class="all-medals ssm1" data-medal="ssm1">
	<circle class="st0" cx="122.9" cy="68.8" r="11.6"/>
	<line class="st1" x1="107.3" y1="47.6" x2="138.4" y2="47.6"/>
	<line class="st1" x1="122.9" y1="47.8" x2="122.9" y2="53.1"/>
	<circle class="st2" cx="107.5" cy="47.6" r="1.3"/>
	<circle class="st2" cx="138" cy="47.6" r="1.3"/>
	<path class="st3" d="M117.6,58.9l0-2.8c0-0.8,0.7-1.5,1.5-1.5l7.5,0c0.8,0,1.5,0.7,1.5,1.5l0,2.4"/>
	<path class="st2" d="M125.1,49.1l-4.5,0c-0.2,0-0.4-0.2-0.4-0.4l0-2.3c0-0.2,0.2-0.4,0.4-0.4l4.5,0c0.2,0,0.4,0.2,0.4,0.4l0,2.3
		C125.5,48.9,125.3,49.1,125.1,49.1z"/>
	<path class="st2" d="M124.9,55.8l-4.1,0c-0.3,0-0.6-0.3-0.6-0.6l0-3.8c0-0.3,0.3-0.6,0.6-0.6l4.1,0c0.3,0,0.6,0.3,0.6,0.6l0,3.8
		C125.5,55.6,125.2,55.8,124.9,55.8z"/>
	<path class="st2" d="M106.5,46.1l0-3.7c0-0.1,0.1-0.2,0.2-0.2l1.5,0c0.1,0,0.2,0.1,0.2,0.2l0,3.7c0,0.1-0.1,0.2-0.2,0.2l-1.5,0
		C106.6,46.3,106.5,46.2,106.5,46.1z"/>
	<path class="st2" d="M137,46l0-3.7c0-0.1,0.1-0.2,0.2-0.2l1.5,0c0.1,0,0.2,0.1,0.2,0.2l0,3.7c0,0.1-0.1,0.2-0.2,0.2l-1.5,0
		C137.1,46.3,137,46.2,137,46z"/>
	<g>
		<path class="st34" d="M108.7,44.7l28.1,0c0,0-1.6-22.9,0.2-36.7l-28.8,0C108.1,8.1,106.5,30.8,108.7,44.7z"/>
		<g>
			<defs>
				<polygon id="SVGID_3_" points="108.6,8.6 136.2,8.6 136.4,44.2 109,44.1 				"/>
			</defs>
			<clipPath id="SVGID_1_">
				<use xlink:href="#SVGID_3_"  style="overflow:visible;"/>
			</clipPath>
			
				<rect x="128.6" y="8.1" transform="matrix(1 -7.797641e-03 7.797641e-03 1 -0.2015 1.0221)" class="st35" width="4.7" height="36.6"/>
			
				<rect x="119.6" y="8.1" transform="matrix(1 -7.797641e-03 7.797641e-03 1 -0.2018 0.952)" class="st36" width="4.7" height="36.6"/>
			
				<rect x="111.6" y="8" transform="matrix(1 -7.797641e-03 7.797641e-03 1 -0.202 0.8897)" class="st37" width="4.7" height="36.7"/>
		</g>
	</g>
</g>
<g class="all-medals wm" data-medal="wm">
	<circle class="st0" cx="108.1" cy="68.8" r="11.6"/>
	<line class="st1" x1="92.5" y1="47.6" x2="123.6" y2="47.6"/>
	<line class="st1" x1="108.1" y1="47.8" x2="108.1" y2="53.1"/>
	<circle class="st2" cx="92.7" cy="47.6" r="1.3"/>
	<circle class="st2" cx="123.2" cy="47.6" r="1.3"/>
	<path class="st3" d="M102.8,58.9l0-2.8c0-0.8,0.7-1.5,1.5-1.5l7.5,0c0.8,0,1.5,0.7,1.5,1.5l0,2.4"/>
	<path class="st2" d="M110.3,49.1l-4.5,0c-0.2,0-0.4-0.2-0.4-0.4l0-2.3c0-0.2,0.2-0.4,0.4-0.4l4.5,0c0.2,0,0.4,0.2,0.4,0.4l0,2.3
		C110.7,48.9,110.5,49.1,110.3,49.1z"/>
	<path class="st2" d="M110.1,55.8l-4.1,0c-0.3,0-0.6-0.3-0.6-0.6l0-3.8c0-0.3,0.3-0.6,0.6-0.6l4.1,0c0.3,0,0.6,0.3,0.6,0.6l0,3.8
		C110.7,55.6,110.4,55.8,110.1,55.8z"/>
	<path class="st38" d="M93.9,44.7l28.1,0c0,0-1.6-22.9,0.2-36.7l-28.8,0C93.4,8.1,91.7,30.8,93.9,44.7z"/>
	<path class="st39" d="M104.5,44.2l6.3,0c0,0-0.6-22.3,0-35.7l-6.5,0C104.3,8.5,103.8,29.6,104.5,44.2z"/>
	<path class="st2" d="M91.7,46.1l0-3.7c0-0.1,0.1-0.2,0.2-0.2l1.5,0c0.1,0,0.2,0.1,0.2,0.2l0,3.7c0,0.1-0.1,0.2-0.2,0.2l-1.5,0
		C91.8,46.3,91.7,46.2,91.7,46.1z"/>
	<path class="st2" d="M122.2,46l0-3.7c0-0.1,0.1-0.2,0.2-0.2l1.5,0c0.1,0,0.2,0.1,0.2,0.2l0,3.7c0,0.1-0.1,0.2-0.2,0.2l-1.5,0
		C122.3,46.3,122.2,46.2,122.2,46z"/>
</g>
<g class="all-medals vsm1" data-medal="vsm1">
	<circle class="st0" cx="92.6" cy="68.8" r="11.6"/>
	<line class="st1" x1="77" y1="47.6" x2="108.2" y2="47.6"/>
	<line class="st1" x1="92.6" y1="47.8" x2="92.6" y2="53.1"/>
	<circle class="st2" cx="77.3" cy="47.6" r="1.3"/>
	<circle class="st2" cx="107.7" cy="47.6" r="1.3"/>
	<path class="st3" d="M87.4,58.9l0-2.8c0-0.8,0.7-1.5,1.5-1.5l7.5,0c0.8,0,1.5,0.7,1.5,1.5l0,2.4"/>
	<path class="st2" d="M94.9,49.1l-4.5,0c-0.2,0-0.4-0.2-0.4-0.4l0-2.3c0-0.2,0.2-0.4,0.4-0.4l4.5,0c0.2,0,0.4,0.2,0.4,0.4l0,2.3
		C95.2,48.9,95.1,49.1,94.9,49.1z"/>
	<path class="st2" d="M94.6,55.8l-4.1,0c-0.3,0-0.6-0.3-0.6-0.6l0-3.8c0-0.3,0.3-0.6,0.6-0.6l4.1,0c0.3,0,0.6,0.3,0.6,0.6l0,3.8
		C95.2,55.6,95,55.8,94.6,55.8z"/>
	<path class="st40" d="M78.4,44.7l28.1,0c0,0-1.6-22.9,0.2-36.7l-28.8,0C77.9,8.1,76.3,30.8,78.4,44.7z"/>
	<path class="st2" d="M76.2,46.1l0-3.7c0-0.1,0.1-0.2,0.2-0.2l1.5,0c0.1,0,0.2,0.1,0.2,0.2l0,3.7c0,0.1-0.1,0.2-0.2,0.2l-1.5,0
		C76.4,46.3,76.2,46.2,76.2,46.1z"/>
	<path class="st2" d="M106.7,46l0-3.7c0-0.1,0.1-0.2,0.2-0.2l1.5,0c0.1,0,0.2,0.1,0.2,0.2l0,3.7c0,0.1-0.1,0.2-0.2,0.2l-1.5,0
		C106.8,46.3,106.7,46.2,106.7,46z"/>
	<path class="st41" d="M84.9,8.4c0,0-1.7,24.5,0.3,35.5"/>
	<path class="st41" d="M90.9,8.6c0,0-1.7,24.5,0.3,35.5"/>
	<path class="st41" d="M96.9,8.8c0,0-1.7,24.5,0.3,35.5"/>
</g>
<g class="all-medals sm" data-medal="sm">
	<circle class="st0" cx="78.6" cy="68.8" r="11.6"/>
	<line class="st1" x1="63" y1="47.6" x2="94.1" y2="47.6"/>
	<line class="st1" x1="78.6" y1="47.8" x2="78.6" y2="53.1"/>
	<circle class="st2" cx="63.2" cy="47.6" r="1.3"/>
	<circle class="st2" cx="93.7" cy="47.6" r="1.3"/>
	<path class="st3" d="M73.3,58.9l0-2.8c0-0.8,0.7-1.5,1.5-1.5l7.5,0c0.8,0,1.5,0.7,1.5,1.5l0,2.4"/>
	<path class="st2" d="M80.8,49.1l-4.5,0c-0.2,0-0.4-0.2-0.4-0.4l0-2.3c0-0.2,0.2-0.4,0.4-0.4l4.5,0c0.2,0,0.4,0.2,0.4,0.4l0,2.3
		C81.2,48.9,81,49.1,80.8,49.1z"/>
	<path class="st2" d="M80.6,55.8l-4.1,0c-0.3,0-0.6-0.3-0.6-0.6l0-3.8c0-0.3,0.3-0.6,0.6-0.6l4.1,0c0.3,0,0.6,0.3,0.6,0.6l0,3.8
		C81.2,55.6,80.9,55.8,80.6,55.8z"/>
	<path class="st42" d="M64.4,44.7l28.1,0c0,0-1.6-22.9,0.2-36.7l-28.8,0C63.9,8.1,62.2,30.8,64.4,44.7z"/>
	<path class="st2" d="M62.2,46.1l0-3.7c0-0.1,0.1-0.2,0.2-0.2l1.5,0c0.1,0,0.2,0.1,0.2,0.2l0,3.7c0,0.1-0.1,0.2-0.2,0.2l-1.5,0
		C62.3,46.3,62.2,46.2,62.2,46.1z"/>
	<path class="st2" d="M92.7,46l0-3.7c0-0.1,0.1-0.2,0.2-0.2l1.5,0c0.1,0,0.2,0.1,0.2,0.2l0,3.7c0,0.1-0.1,0.2-0.2,0.2l-1.5,0
		C92.8,46.3,92.7,46.2,92.7,46z"/>
	<path class="st43" d="M77.4,44.1c0,0,0-18.4-0.1-35.6"/>
</g>
<g class="all-medals ysm" data-medal="ysm">
	<circle class="st44" cx="61.5" cy="68.9" r="11.6"/>
	<line class="st1" x1="45.9" y1="47.6" x2="77" y2="47.6"/>
	<line class="st1" x1="61.5" y1="47.9" x2="61.5" y2="53.1"/>
	<circle class="st2" cx="46.1" cy="47.6" r="1.3"/>
	<circle class="st2" cx="76.6" cy="47.6" r="1.3"/>
	<path class="st3" d="M56.2,58.9l0-2.8c0-0.8,0.7-1.5,1.5-1.5l7.5,0c0.8,0,1.5,0.7,1.5,1.5l0,2.4"/>
	<path class="st2" d="M63.7,49.1l-4.5,0c-0.2,0-0.4-0.2-0.4-0.4l0-2.3c0-0.2,0.2-0.4,0.4-0.4l4.5,0c0.2,0,0.4,0.2,0.4,0.4l0,2.3
		C64.1,49,63.9,49.1,63.7,49.1z"/>
	<path class="st2" d="M63.5,55.9l-4.1,0c-0.3,0-0.6-0.3-0.6-0.6l0-3.8c0-0.3,0.3-0.6,0.6-0.6l4.1,0c0.3,0,0.6,0.3,0.6,0.6l0,3.8
		C64.1,55.6,63.8,55.9,63.5,55.9z"/>
	<path class="st40" d="M47.3,44.8l28.1,0c0,0-1.6-22.9,0.2-36.7l-28.8,0C46.8,8.1,45.1,30.8,47.3,44.8z"/>
	<path class="st2" d="M45.1,46.1l0-3.7c0-0.1,0.1-0.2,0.2-0.2l1.5,0c0.1,0,0.2,0.1,0.2,0.2l0,3.7c0,0.1-0.1,0.2-0.2,0.2l-1.5,0
		C45.2,46.3,45.1,46.2,45.1,46.1z"/>
	<path class="st2" d="M75.6,46l0-3.7c0-0.1,0.1-0.2,0.2-0.2l1.5,0c0.1,0,0.2,0.1,0.2,0.2l0,3.7c0,0.1-0.1,0.2-0.2,0.2l-1.5,0
		C75.7,46.3,75.6,46.2,75.6,46z"/>
	<path class="st45" d="M56.1,44.2c0,0-2.9-18.9,0-36.2"/>
	<path class="st45" d="M66.1,44.5c0,0-2.9-18.9,0-36.2"/>
	<path class="st45" d="M61.1,44.3c0,0-2.9-18.9,0-36.2"/>
	<g>
		<polygon class="st46" points="61.5,72.8 56.1,76 57.4,69.8 52.7,65.6 59,65 61.5,59.2 64,65 70.3,65.6 65.6,69.8 66.9,76 		"/>
		<polyline class="st47" points="59,65 61.5,68.4 57.4,69.8 		"/>
		<polyline class="st47" points="61.5,72.8 61.5,68.4 65.6,69.8 		"/>
		<polyline class="st47" points="64,65 61.5,68.4 56.1,76 		"/>
		<polyline class="st47" points="66.9,76 61.5,68.4 70.3,65.6 		"/>
		<polyline class="st47" points="52.7,65.6 61.5,68.4 61.5,59.2 		"/>
	</g>
</g>
<g class="all-medals avsm" data-medal="avsm">
	<circle class="st0" cx="47.2" cy="68.8" r="11.6"/>
	<line class="st1" x1="31.6" y1="47.6" x2="62.8" y2="47.6"/>
	<line class="st1" x1="47.2" y1="47.9" x2="47.2" y2="53.1"/>
	<circle class="st2" cx="31.9" cy="47.6" r="1.3"/>
	<circle class="st2" cx="62.3" cy="47.6" r="1.3"/>
	<path class="st3" d="M42,58.9l0-2.8c0-0.8,0.7-1.5,1.5-1.5l7.5,0c0.8,0,1.5,0.7,1.5,1.5l0,2.4"/>
	<path class="st2" d="M49.5,49.1l-4.5,0c-0.2,0-0.4-0.2-0.4-0.4l0-2.3c0-0.2,0.2-0.4,0.4-0.4l4.5,0c0.2,0,0.4,0.2,0.4,0.4l0,2.3
		C49.8,48.9,49.7,49.1,49.5,49.1z"/>
	<path class="st2" d="M49.2,55.8l-4.1,0c-0.3,0-0.6-0.3-0.6-0.6l0-3.8c0-0.3,0.3-0.6,0.6-0.6l4.1,0c0.3,0,0.6,0.3,0.6,0.6l0,3.8
		C49.9,55.6,49.6,55.8,49.2,55.8z"/>
	<path class="st40" d="M33,44.7l28.1,0c0,0-1.6-22.9,0.2-36.7l-28.8,0C32.5,8.1,30.9,30.8,33,44.7z"/>
	<path class="st2" d="M30.9,46.1l0-3.7c0-0.1,0.1-0.2,0.2-0.2l1.5,0c0.1,0,0.2,0.1,0.2,0.2l0,3.7c0,0.1-0.1,0.2-0.2,0.2l-1.5,0
		C31,46.3,30.9,46.2,30.9,46.1z"/>
	<path class="st2" d="M61.3,46l0-3.7c0-0.1,0.1-0.2,0.2-0.2l1.5,0c0.1,0,0.2,0.1,0.2,0.2l0,3.7c0,0.1-0.1,0.2-0.2,0.2l-1.5,0
		C61.4,46.3,61.3,46.2,61.3,46z"/>
	<path class="st41" d="M42.9,44.2c0,0-2.9-18.9,0-36.2"/>
	<path class="st41" d="M49.6,44.7c0,0-2.9-18.9,0-36.2"/>
</g>
<g class="all-medals uysm" data-medal="uysm">
	<circle class="st48" cx="34.1" cy="68.8" r="11.6"/>
	<line class="st1" x1="18.5" y1="47.6" x2="49.6" y2="47.6"/>
	<line class="st1" x1="34.1" y1="47.8" x2="34.1" y2="53.1"/>
	<circle class="st2" cx="18.7" cy="47.6" r="1.3"/>
	<circle class="st2" cx="49.2" cy="47.6" r="1.3"/>
	<path class="st3" d="M28.8,58.9l0-2.8c0-0.8,0.7-1.5,1.5-1.5l7.5,0c0.8,0,1.5,0.7,1.5,1.5l0,2.4"/>
	<path class="st2" d="M36.3,49.1l-4.5,0c-0.2,0-0.4-0.2-0.4-0.4l0-2.3c0-0.2,0.2-0.4,0.4-0.4l4.5,0c0.2,0,0.4,0.2,0.4,0.4l0,2.3
		C36.7,48.9,36.5,49.1,36.3,49.1z"/>
	<path class="st2" d="M36.1,55.8l-4.1,0c-0.3,0-0.6-0.3-0.6-0.6l0-3.8c0-0.3,0.3-0.6,0.6-0.6l4.1,0c0.3,0,0.6,0.3,0.6,0.6l0,3.8
		C36.7,55.6,36.4,55.8,36.1,55.8z"/>
	<path class="st49" d="M19.8,44.7l28.1,0c0,0-1.6-22.9,0.2-36.7l-28.8,0C19.3,8.1,17.7,30.8,19.8,44.7z"/>
	<path class="st2" d="M17.7,46.1l0-3.7c0-0.1,0.1-0.2,0.2-0.2l1.5,0c0.1,0,0.2,0.1,0.2,0.2l0,3.7c0,0.1-0.1,0.2-0.2,0.2l-1.5,0
		C17.8,46.3,17.7,46.2,17.7,46.1z"/>
	<path class="st2" d="M48.2,46l0-3.7c0-0.1,0.1-0.2,0.2-0.2l1.5,0c0.1,0,0.2,0.1,0.2,0.2l0,3.7c0,0.1-0.1,0.2-0.2,0.2l-1.5,0
		C48.3,46.3,48.2,46.2,48.2,46z"/>
	<path class="st45" d="M30.7,44.2c0,0-2.9-18.9,0-36.2"/>
	<path class="st45" d="M37.7,44.4c0,0-2.9-18.9,0-36.2"/>
	<g>
		<polygon class="st50" points="34.1,72.8 28.6,76 30,69.8 25.3,65.6 31.5,65 34.1,59.2 36.6,65 42.9,65.6 38.2,69.8 39.5,75.9 		
			"/>
		<polyline class="st51" points="31.5,65 34,68.4 30,69.8 		"/>
		<polyline class="st51" points="34.1,72.8 34,68.4 38.2,69.8 		"/>
		<polyline class="st51" points="36.6,65 34,68.4 28.6,76 		"/>
		<polyline class="st51" points="39.5,75.9 34,68.4 42.9,65.6 		"/>
		<polyline class="st51" points="25.3,65.6 34,68.4 34.1,59.2 		"/>
	</g>
</g>
<g class="all-medals pvsm" data-medal="pvsm">
	<circle class="st52" cx="22" cy="68.8" r="11.6"/>
	<line class="st1" x1="6.4" y1="47.6" x2="37.6" y2="47.6"/>
	<line class="st1" x1="22" y1="47.8" x2="22" y2="53.1"/>
	<circle class="st2" cx="6.6" cy="47.6" r="1.3"/>
	<circle class="st2" cx="37.1" cy="47.6" r="1.3"/>
	<path class="st3" d="M16.7,58.9l0-2.8c0-0.8,0.7-1.5,1.5-1.5l7.5,0c0.8,0,1.5,0.7,1.5,1.5l0,2.4"/>
	<path class="st2" d="M24.3,49.1l-4.5,0c-0.2,0-0.4-0.2-0.4-0.4l0-2.3c0-0.2,0.2-0.4,0.4-0.4l4.5,0c0.2,0,0.4,0.2,0.4,0.4l0,2.3
		C24.6,48.9,24.5,49.1,24.3,49.1z"/>
	<path class="st2" d="M24,55.8l-4.1,0c-0.3,0-0.6-0.3-0.6-0.6l0-3.8c0-0.3,0.3-0.6,0.6-0.6l4.1,0c0.3,0,0.6,0.3,0.6,0.6l0,3.8
		C24.6,55.6,24.4,55.8,24,55.8z"/>
	<path class="st40" d="M7.8,44.7l28.1,0c0,0-1.6-22.9,0.2-36.7l-28.8,0C7.3,8.1,5.6,30.8,7.8,44.7z"/>
	<path class="st2" d="M5.6,46.1l0-3.7c0-0.1,0.1-0.2,0.2-0.2l1.5,0c0.1,0,0.2,0.1,0.2,0.2l0,3.7c0,0.1-0.1,0.2-0.2,0.2l-1.5,0
		C5.7,46.3,5.6,46.2,5.6,46.1z"/>
	<path class="st2" d="M36.1,46l0-3.7c0-0.1,0.1-0.2,0.2-0.2l1.5,0c0.1,0,0.2,0.1,0.2,0.2l0,3.7c0,0.1-0.1,0.2-0.2,0.2l-1.5,0
		C36.2,46.3,36.1,46.2,36.1,46z"/>
	<path class="st41" d="M20.7,44.3c0,0-2.9-18.9,0-36.2"/>
	<g>
		<polygon class="st46" points="22,72.8 16.6,76 17.9,69.8 13.2,65.6 19.5,65 22,59.2 24.5,65 30.8,65.6 26.1,69.8 27.5,75.9 		"/>
		<polyline class="st47" points="19.5,65 22,68.4 17.9,69.8 		"/>
		<polyline class="st47" points="22,72.8 22,68.4 26.1,69.8 		"/>
		<polyline class="st47" points="24.5,65 22,68.4 16.6,76 		"/>
		<polyline class="st47" points="27.5,75.9 22,68.4 30.8,65.6 		"/>
		<polyline class="st47" points="13.2,65.6 22,68.4 22,59.2 		"/>
	</g>
</g>
</svg>
