<?xml version="1.0" encoding="utf-8"?>
<!-- Generator: Adobe Illustrator 24.0.2, SVG Export Plug-In . SVG Version: 6.00 Build 0)  -->
<svg version="1.1" id="airforce-medals" xmlns="http://www.w3.org/2000/svg" xmlns:xlink="http://www.w3.org/1999/xlink" x="0px"
	 y="0px" viewBox="0 0 205.8 88" style="enable-background:new 0 0 205.8 88;" xml:space="preserve">
<style type="text/css">
	#airforce-medals .st0{fill:#868686;stroke:#1D1D1B;stroke-width:1.1407;stroke-miterlimit:10;}
	#airforce-medals .st1{fill:none;stroke:#1D1D1B;stroke-width:1.1407;stroke-miterlimit:10;}
	#airforce-medals .st2{fill:#1D1D1B;}
	#airforce-medals .st3{fill:none;stroke:#1D1D1B;stroke-width:0.9891;stroke-miterlimit:10;}
	#airforce-medals .st4{fill:#00A162;stroke:#1D1D1B;stroke-width:0.9891;stroke-miterlimit:10;}
	#airforce-medals .st5{fill:none;stroke:#1D1D1B;stroke-width:0.4945;stroke-miterlimit:10;}
	#airforce-medals .st6{fill:#222160;stroke:#1D1D1B;stroke-miterlimit:10;}
	#airforce-medals .st7{fill:#6586C4;}
	#airforce-medals .st8{fill:#ED1C24;}
	#airforce-medals .st9{fill:#868686;stroke:#1D1D1B;stroke-width:1.1506;stroke-miterlimit:10;}
	#airforce-medals .st10{fill:none;stroke:#1D1D1B;stroke-width:1.1506;stroke-miterlimit:10;}
	#airforce-medals .st11{fill:none;stroke:#1D1D1B;stroke-width:0.9976;stroke-miterlimit:10;}
	#airforce-medals .st12{fill:#F79341;stroke:#1D1D1B;stroke-width:0.9891;stroke-miterlimit:10;}
	#airforce-medals .st13{fill:#26266C;}
	#airforce-medals .st14{fill:#719DD3;}
	#airforce-medals .st15{fill:#868686;stroke:#1D1D1B;stroke-width:1.1559;stroke-miterlimit:10;}
	#airforce-medals .st16{fill:none;stroke:#1D1D1B;stroke-width:1.1559;stroke-miterlimit:10;}
	#airforce-medals .st17{fill:none;stroke:#1D1D1B;stroke-width:1.0022;stroke-miterlimit:10;}
	#airforce-medals .st18{fill:#F19220;stroke:#1D1D1B;stroke-width:1.0022;stroke-miterlimit:10;}
	#airforce-medals .st19{fill:#5CB24F;}
	#airforce-medals .st20{fill:#82C9EF;stroke:#1D1D1B;stroke-width:0.9976;stroke-miterlimit:10;}
	#airforce-medals .st21{fill:none;stroke:#FFFFFF;stroke-width:1.1503;stroke-miterlimit:10;}
	#airforce-medals .st22{fill:#759AD1;stroke:#1D1D1B;stroke-miterlimit:10;}
	#airforce-medals .st23{fill:#FFFFFF;}
	#airforce-medals .st24{fill:#EF8722;stroke:#1D1D1B;stroke-width:0.9891;stroke-miterlimit:10;}
	#airforce-medals .st25{fill:none;stroke:#1F3A22;stroke-miterlimit:10;}
	#airforce-medals .st26{fill:none;stroke:#D0D0D0;stroke-miterlimit:10;}
	#airforce-medals .st27{fill:#868686;stroke:#1D1D1B;stroke-width:1.15;stroke-miterlimit:10;}
	#airforce-medals .st28{fill:none;stroke:#1D1D1B;stroke-width:1.15;stroke-miterlimit:10;}
	#airforce-medals .st29{fill:none;stroke:#1D1D1B;stroke-width:0.9971;stroke-miterlimit:10;}
	#airforce-medals .st30{fill:#C2BBD2;stroke:#1D1D1B;stroke-width:1.1955;stroke-miterlimit:10;}
	#airforce-medals .st31{fill:none;stroke:#A3D9F5;stroke-width:1.1496;stroke-miterlimit:10;}
	#airforce-medals .st32{fill:#8FD0E0;stroke:#1D1D1B;stroke-width:0.9971;stroke-miterlimit:10;}
	#airforce-medals .st33{fill:#5CB24F;stroke:#1D1D1B;stroke-width:0.9971;stroke-miterlimit:10;}
	#airforce-medals .st34{fill:#5CB24F;stroke:#FFFFFF;stroke-width:2.0499;stroke-miterlimit:10;}
	#airforce-medals .st35{fill:#868686;stroke:#1D1D1B;stroke-width:1.1217;stroke-miterlimit:10;}
	#airforce-medals .st36{fill:none;stroke:#1D1D1B;stroke-width:1.1217;stroke-miterlimit:10;}
	#airforce-medals .st37{fill:none;stroke:#1D1D1B;stroke-width:0.9729;stroke-miterlimit:10;}
	#airforce-medals .st38{fill:#797978;stroke:#1D1D1B;stroke-width:0.9729;stroke-miterlimit:10;}
	#airforce-medals .st39{fill:none;stroke:#FFFFFF;stroke-width:8.1997;stroke-miterlimit:10;}
	#airforce-medals .st40{fill:#868686;stroke:#1D1D1B;stroke-width:1.1421;stroke-miterlimit:10;}
	#airforce-medals .st41{fill:none;stroke:#1D1D1B;stroke-width:1.1421;stroke-miterlimit:10;}
	#airforce-medals .st42{fill:none;stroke:#1D1D1B;stroke-width:0.9906;stroke-miterlimit:10;}
	#airforce-medals .st43{fill:#3BA949;stroke:#1D1D1B;stroke-width:0.9906;stroke-miterlimit:10;}
	#airforce-medals .st44{fill:none;stroke:#38A7DF;stroke-width:6.933;stroke-miterlimit:10;}
	#airforce-medals .st45{fill:none;stroke:#1D1D1B;stroke-width:1.1307;stroke-miterlimit:10;}
	#airforce-medals .st46{fill:#C9374B;stroke:#1D1D1B;stroke-width:0.9807;stroke-miterlimit:10;}
	#airforce-medals .st47{clip-path:url(#SVGID_2_);fill:none;stroke:#526298;stroke-width:2.0664;stroke-miterlimit:10;}
	#airforce-medals .st48{clip-path:url(#SVGID_3_);fill:none;stroke:#526298;stroke-width:2.0664;stroke-miterlimit:10;}
	#airforce-medals .st49{clip-path:url(#SVGID_4_);fill:none;stroke:#526298;stroke-width:2.0664;stroke-miterlimit:10;}
	#airforce-medals .st50{clip-path:url(#SVGID_5_);fill:none;stroke:#526298;stroke-width:2.0664;stroke-miterlimit:10;}
	#airforce-medals .st51{clip-path:url(#SVGID_6_);fill:none;stroke:#526298;stroke-width:2.0664;stroke-miterlimit:10;}
	#airforce-medals .st52{clip-path:url(#SVGID_7_);fill:none;stroke:#526298;stroke-width:2.0664;stroke-miterlimit:10;}
	#airforce-medals .st53{clip-path:url(#SVGID_8_);fill:none;stroke:#526298;stroke-width:2.0664;stroke-miterlimit:10;}
	#airforce-medals .st54{clip-path:url(#SVGID_9_);fill:none;stroke:#526298;stroke-width:2.0664;stroke-miterlimit:10;}
	#airforce-medals .st55{clip-path:url(#SVGID_10_);fill:none;stroke:#526298;stroke-width:2.0664;stroke-miterlimit:10;}
	#airforce-medals .st56{fill:none;stroke:#1D1D1B;stroke-width:1.0332;stroke-miterlimit:10;}
	#airforce-medals .st57{fill:#B2B2B2;stroke:#1D1D1B;stroke-width:1.1307;stroke-linecap:round;stroke-linejoin:round;stroke-miterlimit:10;}
	#airforce-medals .st58{fill:#B2B2B2;}
	#airforce-medals .st59{fill:none;stroke:#1D1D1B;stroke-width:1.1307;stroke-linecap:round;stroke-linejoin:round;stroke-miterlimit:10;}
	#airforce-medals .st60{fill:#FEEC5E;stroke:#1D1D1B;stroke-width:0.9891;stroke-miterlimit:10;}
	#airforce-medals .st61{fill:none;stroke:#2A2665;stroke-miterlimit:10;}
	#airforce-medals .st62{fill:#B2B2B2;stroke:#1D1D1B;stroke-width:1.1407;stroke-miterlimit:10;}
	#airforce-medals .st63{fill:#F7B132;stroke:#1D1D1B;stroke-width:0.9891;stroke-miterlimit:10;}
	#airforce-medals .st64{fill:none;stroke:#D45627;stroke-miterlimit:10;}
	#airforce-medals .st65{fill:#D9D9D8;stroke:#868686;stroke-width:0.1983;stroke-linecap:round;stroke-linejoin:round;stroke-miterlimit:10;}
	#airforce-medals .st66{fill:none;stroke:#868686;stroke-width:0.1983;stroke-linecap:round;stroke-linejoin:round;stroke-miterlimit:10;}
	#airforce-medals .st67{fill:#E65125;stroke:#1D1D1B;stroke-width:1.1407;stroke-miterlimit:10;}
	#airforce-medals .st68{fill:#F7B132;stroke:#F19220;stroke-width:0.1983;stroke-linecap:round;stroke-linejoin:round;stroke-miterlimit:10;}
	#airforce-medals .st69{fill:none;stroke:#F19220;stroke-width:0.1983;stroke-linecap:round;stroke-linejoin:round;stroke-miterlimit:10;}
</style>
<g class="all-medals nineyears" data-medal="nineyears">
	<g>
		<circle class="st0" cx="186.9" cy="69.4" r="11.6"/>
		<line class="st1" x1="171.3" y1="48.2" x2="202.5" y2="48.2"/>
		<line class="st1" x1="186.9" y1="48.4" x2="186.9" y2="53.7"/>
		<circle class="st2" cx="171.5" cy="48.2" r="1.3"/>
		<circle class="st2" cx="202" cy="48.2" r="1.3"/>
		<path class="st3" d="M181.6,59.5l0-2.8c0-0.8,0.7-1.5,1.5-1.5l7.5,0c0.8,0,1.5,0.7,1.5,1.5l0,2.4"/>
		<path class="st2" d="M189.1,49.7l-4.5,0c-0.2,0-0.4-0.2-0.4-0.4l0-2.3c0-0.2,0.2-0.4,0.4-0.4l4.5,0c0.2,0,0.4,0.2,0.4,0.4l0,2.3
			C189.5,49.5,189.4,49.7,189.1,49.7z"/>
		<path class="st2" d="M188.9,56.4l-4.1,0c-0.3,0-0.6-0.3-0.6-0.6l0-3.8c0-0.3,0.3-0.6,0.6-0.6l4.1,0c0.3,0,0.6,0.3,0.6,0.6l0,3.8
			C189.5,56.2,189.3,56.4,188.9,56.4z"/>
		<path class="st4" d="M172.7,45.3l28.1,0c0,0-1.6-22.9,0.2-36.7l-28.8,0C172.2,8.7,170.5,31.4,172.7,45.3z"/>
		<path class="st2" d="M170.5,46.7l0-3.7c0-0.1,0.1-0.2,0.2-0.2l1.5,0c0.1,0,0.2,0.1,0.2,0.2l0,3.7c0,0.1-0.1,0.2-0.2,0.2l-1.5,0
			C170.6,46.9,170.5,46.8,170.5,46.7z"/>
		<path class="st2" d="M201,46.6l0-3.7c0-0.1,0.1-0.2,0.2-0.2l1.5,0c0.1,0,0.2,0.1,0.2,0.2l0,3.7c0,0.1-0.1,0.2-0.2,0.2l-1.5,0
			C201.1,46.9,201,46.8,201,46.6z"/>
	</g>
	<g>
		<path class="st5" d="M196.8,45.3c0,0-1.6-22.9,0.2-36.7"/>
		<path class="st5" d="M192.6,45.3c0,0-1.6-22.9,0.2-36.7"/>
		<path class="st5" d="M188.3,45.3c0,0-1.6-22.9,0.2-36.7"/>
		<path class="st5" d="M184,45.3c0,0-1.6-22.9,0.2-36.7"/>
		<path class="st5" d="M179.7,45.3c0,0-1.6-22.9,0.2-36.7"/>
		<path class="st5" d="M175.5,45.3c0,0-1.6-22.9,0.2-36.7"/>
	</g>
</g>
<g class="all-medals twentyyears" data-medal="twentyyears">
	<circle class="st0" cx="174.9" cy="69.4" r="11.6"/>
	<line class="st1" x1="159.3" y1="48.2" x2="190.5" y2="48.2"/>
	<line class="st1" x1="174.9" y1="48.4" x2="174.9" y2="53.7"/>
	<circle class="st2" cx="159.5" cy="48.2" r="1.3"/>
	<circle class="st2" cx="190" cy="48.2" r="1.3"/>
	<path class="st3" d="M169.6,59.5l0-2.8c0-0.8,0.7-1.5,1.5-1.5l7.5,0c0.8,0,1.5,0.7,1.5,1.5l0,2.4"/>
	<path class="st2" d="M177.2,49.7l-4.5,0c-0.2,0-0.4-0.2-0.4-0.4l0-2.3c0-0.2,0.2-0.4,0.4-0.4l4.5,0c0.2,0,0.4,0.2,0.4,0.4l0,2.3
		C177.5,49.5,177.4,49.7,177.2,49.7z"/>
	<path class="st2" d="M176.9,56.4l-4.1,0c-0.3,0-0.6-0.3-0.6-0.6l0-3.8c0-0.3,0.3-0.6,0.6-0.6l4.1,0c0.3,0,0.6,0.3,0.6,0.6l0,3.8
		C177.5,56.2,177.3,56.4,176.9,56.4z"/>
	<path class="st6" d="M160.7,45.3l28.1,0c0,0-1.6-22.9,0.2-36.7l-28.8,0C160.2,8.7,158.5,31.4,160.7,45.3z"/>
	<path class="st2" d="M158.5,46.7l0-3.7c0-0.1,0.1-0.2,0.2-0.2l1.5,0c0.1,0,0.2,0.1,0.2,0.2l0,3.7c0,0.1-0.1,0.2-0.2,0.2l-1.5,0
		C158.6,46.9,158.5,46.8,158.5,46.7z"/>
	<path class="st2" d="M189,46.6l0-3.7c0-0.1,0.1-0.2,0.2-0.2l1.5,0c0.1,0,0.2,0.1,0.2,0.2l0,3.7c0,0.1-0.1,0.2-0.2,0.2l-1.5,0
		C189.1,46.9,189,46.8,189,46.6z"/>
	<path class="st7" d="M179.6,9.1c0,0-1.3,6.5-1.3,16.3c0,5.7,0.9,12,1.3,19.3l8.5,0c0,0-1-32.4,0.6-35.7L179.6,9.1z"/>
	<path class="st8" d="M160.6,9l8.4,0.1c0,0-1,11.1-0.9,16.5c0,5.4,1.5,19.2,1.5,19.2l-8.6,0.1C161.1,44.9,158.9,21.5,160.6,9z"/>
</g>
<g class="all-medals thirtyyears" data-medal="thirtyyears">
	<circle class="st9" cx="162.9" cy="69.6" r="11.7"/>
	<line class="st10" x1="147.2" y1="48.2" x2="178.6" y2="48.2"/>
	<line class="st10" x1="162.9" y1="48.5" x2="162.9" y2="53.8"/>
	<circle class="st2" cx="147.4" cy="48.2" r="1.3"/>
	<circle class="st2" cx="178.2" cy="48.2" r="1.3"/>
	<path class="st11" d="M157.6,59.6l0-2.8c0-0.8,0.7-1.5,1.5-1.5l7.6,0c0.8,0,1.5,0.7,1.5,1.5l0,2.5"/>
	<path class="st2" d="M165.2,49.7l-4.6,0c-0.2,0-0.4-0.2-0.4-0.4l0-2.4c0-0.2,0.2-0.4,0.4-0.4l4.6,0c0.2,0,0.4,0.2,0.4,0.4l0,2.4
		C165.6,49.6,165.4,49.7,165.2,49.7z"/>
	<path class="st2" d="M165,56.5l-4.1,0c-0.3,0-0.6-0.3-0.6-0.6l0-3.9c0-0.3,0.3-0.6,0.6-0.6l4.1,0c0.3,0,0.6,0.3,0.6,0.6l0,3.9
		C165.6,56.3,165.3,56.5,165,56.5z"/>
	<path class="st12" d="M148.6,45.3l28.4,0c0,0-1.6-23.1,0.2-37l-29.1,0C148.1,8.4,146.4,31.3,148.6,45.3z"/>
	<path class="st2" d="M146.4,46.7l0-3.7c0-0.1,0.1-0.2,0.2-0.2l1.5,0c0.1,0,0.2,0.1,0.2,0.2l0,3.7c0,0.1-0.1,0.2-0.2,0.2l-1.5,0
		C146.5,46.9,146.4,46.8,146.4,46.7z"/>
	<path class="st2" d="M177.1,46.6l0-3.7c0-0.1,0.1-0.2,0.2-0.2l1.5,0c0.1,0,0.2,0.1,0.2,0.2l0,3.7c0,0.1-0.1,0.2-0.2,0.2l-1.5,0
		C177.3,46.9,177.1,46.8,177.1,46.6z"/>
	<rect x="160.6" y="8.8" transform="matrix(1 -3.782037e-03 3.782037e-03 1 -0.1 0.6137)" class="st13" width="3.2" height="35.9"/>
	
		<rect x="157.6" y="8.9" transform="matrix(1 -3.782037e-03 3.782037e-03 1 -0.1005 0.6022)" class="st8" width="3.2" height="35.9"/>
	
		<rect x="163.8" y="8.8" transform="matrix(1 -3.782037e-03 3.782037e-03 1 -0.1001 0.6258)" class="st14" width="3.2" height="35.9"/>
</g>
<g class="all-medals medalna" data-medal="medalna">
	<circle class="st15" cx="151" cy="69.8" r="12"/>
	<line class="st16" x1="134.5" y1="48.8" x2="165.8" y2="47.9"/>
	<line class="st16" x1="150.1" y1="48.8" x2="150.6" y2="54.1"/>
	<circle class="st2" cx="134.5" cy="48.8" r="1.2"/>
	<circle class="st2" cx="165.4" cy="47.9" r="1.2"/>
	<path class="st17" d="M145.2,59.9V57c0-0.8,0.8-1.6,1.6-1.6l7.4-0.4c0.8,0,1.6,0.8,1.6,1.6v2.5"/>
	<path class="st2" d="M151.4,50h-2.1c-0.8,0-1.6-0.8-1.6-1.6l0,0c0-0.8,0.8-1.6,1.6-1.6h2.1c0.8,0,1.6,0.8,1.6,1.6l0,0
		C153,49.2,152.2,50,151.4,50z"/>
	<path class="st2" d="M150.6,56.6L150.6,56.6c-1.6,0-2.9-1.2-2.9-2.5l0,0c0-1.2,1.2-2.5,2.5-2.5h0.4c1.2,0,2.5,1.2,2.5,2.5l0,0
		C153,55.3,152.2,56.6,150.6,56.6z"/>
	<path class="st18" d="M135.7,45.9l28.4-0.8c0,0-2.5-23.1-0.8-37.1l-29.3,0.8C134.1,8.8,133.3,31.9,135.7,45.9z"/>
	<path class="st19" d="M135.7,45.9l14-0.4c0,0-2.5-23.1-0.8-37.1l-14.8,0.4C134.1,8.8,133.3,31.9,135.7,45.9z"/>
	<path class="st2" d="M133.7,46.7v-2.1c0-0.4,0.4-1.2,0.8-1.2l0,0c0.4,0,1.2,0.4,1.2,0.8v2.1c0,0.4-0.4,1.2-0.8,1.2l0,0
		C134.1,47.5,133.7,47.1,133.7,46.7z"/>
	<path class="st2" d="M164.6,45.5v-2.1c0-0.4,0.4-1.2,0.8-1.2l0,0c0.4,0,1.2,0.4,1.2,0.8V45c0,0.4-0.4,1.2-0.8,1.2l0,0
		C165,46.7,164.6,46.3,164.6,45.5z"/>
</g>
<g class="all-medals vsm2" data-medal="vsm2">
	<circle class="st9" cx="138.6" cy="69.6" r="11.7"/>
	<line class="st10" x1="122.9" y1="48.2" x2="154.3" y2="48.2"/>
	<line class="st10" x1="138.6" y1="48.5" x2="138.6" y2="53.8"/>
	<circle class="st2" cx="123.1" cy="48.2" r="1.3"/>
	<circle class="st2" cx="153.8" cy="48.2" r="1.3"/>
	<path class="st11" d="M133.3,59.6l0-2.8c0-0.8,0.7-1.5,1.5-1.5l7.6,0c0.8,0,1.5,0.7,1.5,1.5l0,2.5"/>
	<path class="st2" d="M140.9,49.7l-4.6,0c-0.2,0-0.4-0.2-0.4-0.4l0-2.4c0-0.2,0.2-0.4,0.4-0.4l4.6,0c0.2,0,0.4,0.2,0.4,0.4l0,2.4
		C141.2,49.6,141.1,49.7,140.9,49.7z"/>
	<path class="st2" d="M140.6,56.5l-4.1,0c-0.3,0-0.6-0.3-0.6-0.6l0-3.9c0-0.3,0.3-0.6,0.6-0.6l4.1,0c0.3,0,0.6,0.3,0.6,0.6l0,3.9
		C141.2,56.3,141,56.5,140.6,56.5z"/>
	<path class="st20" d="M124.2,45.3l28.4,0c0,0-1.6-23.1,0.2-37l-29.1,0C123.7,8.4,122.1,31.3,124.2,45.3z"/>
	<path class="st2" d="M122.1,46.7l0-3.7c0-0.1,0.1-0.2,0.2-0.2l1.5,0c0.1,0,0.2,0.1,0.2,0.2l0,3.7c0,0.1-0.1,0.2-0.2,0.2l-1.5,0
		C122.2,46.9,122.1,46.8,122.1,46.7z"/>
	<path class="st2" d="M152.8,46.6l0-3.7c0-0.1,0.1-0.2,0.2-0.2l1.5,0c0.1,0,0.2,0.1,0.2,0.2l0,3.7c0,0.1-0.1,0.2-0.2,0.2l-1.5,0
		C152.9,46.9,152.8,46.8,152.8,46.6z"/>
	<path class="st21" d="M138.2,44.7c0,0-2.1-18.1,0-35.8"/>
	<path class="st21" d="M134,44.5c0,0-2.1-18.1,0-35.8"/>
	<path class="st21" d="M147.6,44.9c0,0-2.1-18.1,0-35.8"/>
	<path class="st21" d="M128.4,44.4c0,0-2.1-18.1,0-35.8"/>
	<path class="st21" d="M142.7,44.7c0,0-2.1-18.6,0-35.8"/>
</g>
<g class="all-medals hasm" data-medal="hasm">
	<circle class="st0" cx="124" cy="69.4" r="11.6"/>
	<line class="st1" x1="108.4" y1="48.2" x2="139.6" y2="48.2"/>
	<line class="st1" x1="124" y1="48.4" x2="124" y2="53.7"/>
	<circle class="st2" cx="108.7" cy="48.2" r="1.3"/>
	<circle class="st2" cx="139.1" cy="48.2" r="1.3"/>
	<path class="st3" d="M118.8,59.5l0-2.8c0-0.8,0.7-1.5,1.5-1.5l7.5,0c0.8,0,1.5,0.7,1.5,1.5l0,2.4"/>
	<path class="st2" d="M126.3,49.7l-4.5,0c-0.2,0-0.4-0.2-0.4-0.4l0-2.3c0-0.2,0.2-0.4,0.4-0.4l4.5,0c0.2,0,0.4,0.2,0.4,0.4l0,2.3
		C126.6,49.5,126.5,49.7,126.3,49.7z"/>
	<path class="st2" d="M126.1,56.4l-4.1,0c-0.3,0-0.6-0.3-0.6-0.6l0-3.8c0-0.3,0.3-0.6,0.6-0.6l4.1,0c0.3,0,0.6,0.3,0.6,0.6l0,3.8
		C126.7,56.2,126.4,56.4,126.1,56.4z"/>
	<path class="st22" d="M109.8,45.3l28.1,0c0,0-1.6-22.9,0.2-36.7l-28.8,0C109.3,8.7,107.7,31.4,109.8,45.3z"/>
	<path class="st2" d="M107.7,46.7l0-3.7c0-0.1,0.1-0.2,0.2-0.2l1.5,0c0.1,0,0.2,0.1,0.2,0.2l0,3.7c0,0.1-0.1,0.2-0.2,0.2l-1.5,0
		C107.8,46.9,107.7,46.8,107.7,46.7z"/>
	<path class="st2" d="M138.1,46.6l0-3.7c0-0.1,0.1-0.2,0.2-0.2l1.5,0c0.1,0,0.2,0.1,0.2,0.2l0,3.7c0,0.1-0.1,0.2-0.2,0.2l-1.5,0
		C138.2,46.9,138.1,46.8,138.1,46.6z"/>
	<g>
		<polygon class="st23" points="109.6,14.1 122.3,9.2 137.1,14.2 137,16 122.4,11.1 109.5,16.1 		"/>
	</g>
	<g>
		<polygon class="st23" points="109.3,20.6 122.1,15.8 136.8,20.7 136.7,22.5 122.1,17.6 109.2,22.7 		"/>
	</g>
	<g>
		<polygon class="st23" points="109.4,26.6 122.1,21.7 136.9,26.7 136.8,28.5 122.2,23.6 109.3,28.6 		"/>
	</g>
	<g>
		<polygon class="st23" points="109.4,32.9 122.3,28.1 136.9,32.9 137,34.8 122.3,29.9 109.5,34.8 		"/>
	</g>
	<g>
		<polygon class="st23" points="109.8,39.6 122.4,34.7 137.1,39.7 137.2,41.6 122.4,36.6 109.9,41.7 		"/>
	</g>
	<g>
		<polygon class="st23" points="113.9,44.8 122.7,41 134,44.8 131.4,44.9 122.7,42.4 116.9,44.9 		"/>
	</g>
</g>
<g class="all-medals medalna" data-medal="medalna">
	<circle class="st0" cx="110.3" cy="69.4" r="11.6"/>
	<line class="st1" x1="94.7" y1="48.2" x2="125.9" y2="48.2"/>
	<line class="st1" x1="110.3" y1="48.4" x2="110.3" y2="53.7"/>
	<circle class="st2" cx="94.9" cy="48.2" r="1.3"/>
	<circle class="st2" cx="125.4" cy="48.2" r="1.3"/>
	<path class="st3" d="M105,59.5l0-2.8c0-0.8,0.7-1.5,1.5-1.5l7.5,0c0.8,0,1.5,0.7,1.5,1.5l0,2.4"/>
	<path class="st2" d="M112.6,49.7l-4.5,0c-0.2,0-0.4-0.2-0.4-0.4l0-2.3c0-0.2,0.2-0.4,0.4-0.4l4.5,0c0.2,0,0.4,0.2,0.4,0.4l0,2.3
		C112.9,49.5,112.8,49.7,112.6,49.7z"/>
	<path class="st2" d="M112.3,56.4l-4.1,0c-0.3,0-0.6-0.3-0.6-0.6l0-3.8c0-0.3,0.3-0.6,0.6-0.6l4.1,0c0.3,0,0.6,0.3,0.6,0.6l0,3.8
		C112.9,56.2,112.7,56.4,112.3,56.4z"/>
	<path class="st24" d="M96.1,45.3l28.1,0c0,0-1.6-22.9,0.2-36.7l-28.8,0C95.6,8.7,93.9,31.4,96.1,45.3z"/>
	<path class="st2" d="M93.9,46.7l0-3.7c0-0.1,0.1-0.2,0.2-0.2l1.5,0c0.1,0,0.2,0.1,0.2,0.2l0,3.7c0,0.1-0.1,0.2-0.2,0.2l-1.5,0
		C94,46.9,93.9,46.8,93.9,46.7z"/>
	<path class="st2" d="M124.4,46.6l0-3.7c0-0.1,0.1-0.2,0.2-0.2l1.5,0c0.1,0,0.2,0.1,0.2,0.2l0,3.7c0,0.1-0.1,0.2-0.2,0.2l-1.5,0
		C124.5,46.9,124.4,46.8,124.4,46.6z"/>
	<path class="st25" d="M112.5,9.3c0,0-3.5,15.6-0.1,35.6"/>
	<path class="st26" d="M104.9,9.2c0,0-2.9,9.1-0.5,35.4"/>
</g>
<g class="all-medals medalna" data-medal="medalna">
	<circle class="st27" cx="97.7" cy="69.6" r="11.9"/>
	<line class="st28" x1="81.3" y1="48.7" x2="112.9" y2="47.5"/>
	<line class="st28" x1="96.9" y1="48.3" x2="97.3" y2="53.7"/>
	<circle class="st2" cx="81.7" cy="48.7" r="1.2"/>
	<circle class="st2" cx="112.1" cy="47.5" r="1.2"/>
	<path class="st29" d="M92,59.8v-2.9c0-0.8,0.8-1.6,1.6-1.6l7.4-0.4c0.8,0,1.6,0.8,1.6,1.6V59"/>
	<path class="st2" d="M98.1,49.6h-2c-0.8,0-1.6-0.8-1.6-1.6l0,0c0-0.8,0.8-1.6,1.6-1.6h2c0.8,0,1.6,0.8,1.6,1.6l0,0
		C99.8,48.7,98.9,49.6,98.1,49.6z"/>
	<path class="st2" d="M97.3,56.5L97.3,56.5c-1.6,0-2.9-1.2-2.9-2.5l0,0c0-1.2,1.2-2.5,2.5-2.5h0.4c1.2,0,2.5,1.2,2.5,2.5l0,0
		C99.8,55.3,98.9,56.5,97.3,56.5z"/>
	<path class="st30" d="M82.5,45.9l28.3-0.8c0,0-2.5-23-0.8-36.9L80.9,9C80.9,8.6,80.1,31.5,82.5,45.9z"/>
	<path class="st2" d="M80.5,46.3v-2c0-0.4,0.4-1.2,0.8-1.2l0,0c0.4,0,1.2,0.4,1.2,0.8v2c0,0.4-0.4,1.2-0.8,1.2l0,0
		C80.9,47.5,80.5,46.7,80.5,46.3z"/>
	<path class="st2" d="M111.2,45.5v-2c0-0.4,0.4-1.2,0.8-1.2l0,0c0.4,0,1.2,0.4,1.2,0.8v2c0,0.4-0.4,1.2-0.8,1.2l0,0
		C111.6,46.3,111.2,45.9,111.2,45.5z"/>
	<path class="st31" d="M96.5,44.6c0,0-2.5-18-1.2-35.7"/>
	<path class="st31" d="M101,44.6c0,0-2.5-18.4-1.2-35.7"/>
</g>
<g class="all-medals medalna" data-medal="medalna">
	<circle class="st27" cx="85.4" cy="69.6" r="11.9"/>
	<line class="st28" x1="69.4" y1="48.7" x2="100.5" y2="47.9"/>
	<line class="st28" x1="85" y1="48.7" x2="85" y2="54.1"/>
	<circle class="st2" cx="69.4" cy="48.7" r="1.2"/>
	<circle class="st2" cx="100.1" cy="47.9" r="1.2"/>
	<path class="st29" d="M80,59.8v-2.9c0-0.8,0.8-1.6,1.6-1.6l7.4-0.4c0.8,0,1.6,0.8,1.6,1.6V59"/>
	<path class="st2" d="M86.2,50h-2c-0.8,0-1.6-0.8-1.6-1.6l0,0c0-0.8,0.8-1.6,1.6-1.6h2c0.8,0,1.6,0.8,1.6,1.6l0,0
		C87.4,49.1,87,50,86.2,50z"/>
	<path class="st2" d="M85.4,56.5L85.4,56.5c-1.6,0-2.9-1.2-2.9-2.5l0,0c0-1.2,1.2-2.5,2.5-2.5h0.4c1.2,0,2.5,1.2,2.5,2.5l0,0
		C87.8,55.3,86.6,56.5,85.4,56.5z"/>
	<path class="st32" d="M70.6,45.9L98.9,45c0,0-2.5-23-0.8-36.9L69,9C69,9,68.1,31.9,70.6,45.9z"/>
	<path class="st33" d="M70.6,45.9l13.9-0.4c0,0-2.5-23-0.8-36.9L69,9C69,9,68.1,31.9,70.6,45.9z"/>
	<path class="st34" d="M84.5,45.5c0,0-2.5-23-0.8-36.9"/>
	<path class="st2" d="M68.6,46.7v-2c0-0.4,0.4-1.2,0.8-1.2l0,0c0.4,0,1.2,0.4,1.2,0.8v2c0,0.4-0.4,1.2-0.8,1.2l0,0
		C69,47.5,68.6,47.1,68.6,46.7z"/>
	<path class="st2" d="M98.9,45.5v-2c0-0.4,0.4-1.2,0.8-1.2l0,0c0.4,0,1.2,0.4,1.2,0.8v2c0,0.4-0.4,1.2-0.8,1.2l0,0
		C99.7,46.7,98.9,46.3,98.9,45.5z"/>
</g>
<g class="all-medals medalna" data-medal="medalna">
	<circle class="st35" cx="72.3" cy="69.2" r="11.5"/>
	<line class="st36" x1="56.3" y1="48.7" x2="86.7" y2="47.9"/>
	<line class="st36" x1="71.5" y1="48.7" x2="71.5" y2="53.7"/>
	<circle class="st2" cx="56.3" cy="48.7" r="1.2"/>
	<circle class="st2" cx="86.3" cy="47.9" r="1.2"/>
	<path class="st37" d="M66.6,59.8v-2.9c0-0.8,0.8-1.6,1.6-1.6l7.4-0.4c0.8,0,1.6,0.8,1.6,1.6V59"/>
	<path class="st2" d="M72.7,50h-2c-0.8,0-1.6-0.8-1.6-1.6l0,0c0-0.8,0.8-1.6,1.6-1.6h2c0.8,0,1.6,0.8,1.6,1.6l0,0
		C74,49.1,73.6,50,72.7,50z"/>
	<path class="st2" d="M71.9,56.5L71.9,56.5c-1.6,0-2.9-1.2-2.9-2.5l0,0c0-1.2,1.2-2.5,2.5-2.5h0.4c1.2,0,2.5,1.2,2.5,2.5l0,0
		C74.4,55.3,73.1,56.5,71.9,56.5z"/>
	<path class="st38" d="M57.6,45.9L85,45c0,0-2-22.5-0.8-36.1L55.9,9.8C55.9,9.8,55.1,32.3,57.6,45.9z"/>
	<path class="st39" d="M70.3,45c0-2.9-0.8-18-1.2-35.3"/>
	<path class="st2" d="M55.5,46.7v-2c0-0.4,0.4-0.8,0.8-0.8l0,0c0.4,0,0.8,0.4,0.8,0.8v2c0,0.4-0.4,0.8-0.8,0.8l0,0
		C55.9,47.5,55.5,47.1,55.5,46.7z"/>
	<path class="st2" d="M85.4,45.9v-2c0-0.4,0.4-0.8,0.8-0.8l0,0c0.4,0,0.8,0.4,0.8,0.8v2c0,0.4-0.4,0.8-0.8,0.8l0,0
		C85.9,46.7,85.4,46.3,85.4,45.9z"/>
</g>
<g class="all-medals medalna" data-medal="medalna">
	<circle class="st40" cx="61.2" cy="69.5" r="11.7"/>
	<line class="st41" x1="44.9" y1="49" x2="76.2" y2="47.8"/>
	<line class="st41" x1="60.8" y1="48.6" x2="60.8" y2="54"/>
	<circle class="st2" cx="45.3" cy="49" r="1.3"/>
	<circle class="st2" cx="75.8" cy="47.8" r="1.3"/>
	<path class="st42" d="M55.8,59.9v-2.9c0-0.8,0.8-1.7,1.7-1.7l7.5-0.4c0.8,0,1.7,0.8,1.7,1.7V59"/>
	<path class="st2" d="M61.6,49.8h-2.1c-0.8,0-1.7-0.8-1.7-1.7l0,0c0-0.8,0.8-1.7,1.7-1.7h2.1c0.8,0,1.7,0.8,1.7,1.7l0,0
		C63.3,49,62.4,49.8,61.6,49.8z"/>
	<path class="st2" d="M60.8,56.5L60.8,56.5c-1.7,0-2.9-1.3-2.9-2.5l0,0c0-1.3,1.3-2.5,2.5-2.5h0.4c1.3,0,2.5,1.3,2.5,2.5l0,0
		C63.3,55.3,62.4,56.5,60.8,56.5z"/>
	<path class="st43" d="M46.2,46.1l28-0.8c0,0-2.1-23-0.8-36.7L44.5,9.4C44.9,9.4,43.7,31.9,46.2,46.1z"/>
	<path class="st2" d="M44.1,46.5v-2.1c0-0.4,0.4-0.8,0.8-0.8l0,0c0.4,0,0.8,0.4,0.8,0.8v2.1c0,0.4-0.4,0.8-0.8,0.8l0,0
		C44.5,47.8,44.1,47.3,44.1,46.5z"/>
	<path class="st2" d="M74.6,45.7v-2.1c0-0.4,0.4-0.8,0.8-0.8l0,0c0.4,0,0.8,0.4,0.8,0.8v2.1c0,0.4-0.4,0.8-0.8,0.8l0,0
		C75,46.5,74.6,46.1,74.6,45.7z"/>
	<path class="st44" d="M59.5,44.8c0,0-0.4-18.4-1.3-35.5"/>
</g>
<g class="all-medals medalna" data-medal="medalna">
	<g>
		<line class="st45" x1="30.4" y1="49.2" x2="61" y2="48"/>
		<line class="st45" x1="45.7" y1="48.8" x2="45.7" y2="54.2"/>
		<circle class="st2" cx="30.4" cy="49.2" r="1.2"/>
		<circle class="st2" cx="60.6" cy="48" r="1.2"/>
		<path class="st2" d="M47,50.1h-2.1c-0.8,0-1.7-0.8-1.7-1.7l0,0c0-0.8,0.8-1.7,1.7-1.7H47c0.8,0,1.7,0.8,1.7,1.7l0,0
			C48.2,49.2,47.8,50.1,47,50.1z"/>
		<path class="st46" d="M31.7,46.3l27.7-0.8c0,0-2.1-22.7-0.8-36.4L30,10C30,10,29.2,32.3,31.7,46.3z"/>
		<path class="st2" d="M29.2,46.8v-2.1c0-0.4,0.4-0.8,0.8-0.8l0,0c0.4,0,0.8,0.4,0.8,0.8v2.1c0,0.4-0.4,0.8-0.8,0.8l0,0
			C30,48,29.6,47.2,29.2,46.8z"/>
		<path class="st2" d="M59.8,45.9v-2.1c0-0.4,0.4-0.8,0.8-0.8l0,0c0.4,0,0.8,0.4,0.8,0.8v2.1c0,0.4-0.4,0.8-0.8,0.8l0,0
			C60.2,46.8,59.8,46.3,59.8,45.9z"/>
	</g>
	<g>
		<g>
			<defs>
				<path id="SVGID_59_" d="M31.7,46.3l27.7-0.8c0,0-2.1-22.7-0.8-36.4L30,10C30,10,29.2,32.3,31.7,46.3z"/>
			</defs>
			<clipPath id="SVGID_2_">
				<use xlink:href="#SVGID_59_"  style="overflow:visible;"/>
			</clipPath>
			<line class="st47" x1="29.6" y1="14.9" x2="35" y2="10"/>
		</g>
		<g>
			<defs>
				<path id="SVGID_61_" d="M31.7,46.3l27.7-0.8c0,0-2.1-22.7-0.8-36.4L30,10C30,10,29.2,32.3,31.7,46.3z"/>
			</defs>
			<clipPath id="SVGID_3_">
				<use xlink:href="#SVGID_61_"  style="overflow:visible;"/>
			</clipPath>
			<line class="st48" x1="29.2" y1="21.5" x2="41.2" y2="9.2"/>
		</g>
		<g>
			<defs>
				<path id="SVGID_63_" d="M31.7,46.3l27.7-0.8c0,0-2.1-22.7-0.8-36.4L30,10C30,10,29.2,32.3,31.7,46.3z"/>
			</defs>
			<clipPath id="SVGID_4_">
				<use xlink:href="#SVGID_63_"  style="overflow:visible;"/>
			</clipPath>
			<line class="st49" x1="29.2" y1="29.4" x2="49" y2="8.7"/>
		</g>
		<g>
			<defs>
				<path id="SVGID_65_" d="M31.7,46.3l27.7-0.8c0,0-2.1-22.7-0.8-36.4L30,10C30,10,29.2,32.3,31.7,46.3z"/>
			</defs>
			<clipPath id="SVGID_5_">
				<use xlink:href="#SVGID_65_"  style="overflow:visible;"/>
			</clipPath>
			<line class="st50" x1="30" y1="35.6" x2="55.6" y2="8.7"/>
		</g>
		<g>
			<defs>
				<path id="SVGID_67_" d="M31.7,46.3l27.7-0.8c0,0-2.1-22.7-0.8-36.4L30,10C30,10,29.2,32.3,31.7,46.3z"/>
			</defs>
			<clipPath id="SVGID_6_">
				<use xlink:href="#SVGID_67_"  style="overflow:visible;"/>
			</clipPath>
			<line class="st51" x1="31.3" y1="41.4" x2="59.4" y2="12"/>
		</g>
		<g>
			<defs>
				<path id="SVGID_69_" d="M31.7,46.3l27.7-0.8c0,0-2.1-22.7-0.8-36.4L30,10C30,10,29.2,32.3,31.7,46.3z"/>
			</defs>
			<clipPath id="SVGID_7_">
				<use xlink:href="#SVGID_69_"  style="overflow:visible;"/>
			</clipPath>
			<line class="st52" x1="32.1" y1="48.4" x2="60.2" y2="19.1"/>
		</g>
		<g>
			<defs>
				<path id="SVGID_71_" d="M31.7,46.3l27.7-0.8c0,0-2.1-22.7-0.8-36.4L30,10C30,10,29.2,32.3,31.7,46.3z"/>
			</defs>
			<clipPath id="SVGID_8_">
				<use xlink:href="#SVGID_71_"  style="overflow:visible;"/>
			</clipPath>
			<line class="st53" x1="41.6" y1="46.3" x2="59.4" y2="28.2"/>
		</g>
		<g>
			<defs>
				<path id="SVGID_73_" d="M31.7,46.3l27.7-0.8c0,0-2.1-22.7-0.8-36.4L30,10C30,10,29.2,32.3,31.7,46.3z"/>
			</defs>
			<clipPath id="SVGID_9_">
				<use xlink:href="#SVGID_73_"  style="overflow:visible;"/>
			</clipPath>
			<line class="st54" x1="48.2" y1="46.3" x2="59.4" y2="34.8"/>
		</g>
		<g>
			<defs>
				<path id="SVGID_75_" d="M31.7,46.3l27.7-0.8c0,0-2.1-22.7-0.8-36.4L30,10C30,10,29.2,32.3,31.7,46.3z"/>
			</defs>
			<clipPath id="SVGID_10_">
				<use xlink:href="#SVGID_75_"  style="overflow:visible;"/>
			</clipPath>
			<line class="st55" x1="54.8" y1="45.1" x2="59.4" y2="40.1"/>
		</g>
		<g>
			<path id="SVGID_1_" class="st56" d="M31.7,46.3l27.7-0.8c0,0-2.1-22.7-0.8-36.4L30,10C30,10,29.2,32.3,31.7,46.3z"/>
		</g>
	</g>
	<g>
		<g>
			<path class="st57" d="M48.6,58.3c0,0,1.2,8.3,11.2,7.9c0,0,1.2,2.1,3.3,2.5c0,0-3.3,0.8-3.3,2.9c0,0-8.3-0.4-10.3,7.9"/>
			<path class="st57" d="M42.8,58.3c0,0-1.2,8.3-11.2,7.9c0,0-1.2,2.1-3.3,2.5c0,0,3.3,0.8,3.3,2.9c0,0,7.4-0.8,9.9,6.6"/>
			<path class="st57" d="M56.9,66.2c0,0-8.7-1.2-8.3-10.7c0,0-2.1-1.2-2.5-3.3c0,0-0.8,3.3-2.9,3.3c0,0,0.4,8.7-7.4,10.7"/>
			<path class="st57" d="M56.1,72c0,0-6.2,0.4-7.4,11.2c0,0-2.1,1.2-2.5,3.3c0,0-0.8-3.3-2.9-3.3c0,0-1.7-10.7-8.3-11.6"/>
		</g>
		<polygon class="st58" points="42,63.7 39.1,67.4 42.8,75.7 50.7,72.4 50.7,64.9 		"/>
	</g>
	<path class="st59" d="M43.2,55c0,0,2.1,11.6,5,0"/>
	<path class="st59" d="M59.4,66.2c0,0-9.1,2.5,0,5"/>
	<path class="st59" d="M43.7,83.1c0,0,2.9-9.5,5,0"/>
	<path class="st59" d="M32.1,66.2c0,0,10.7,2.5,0,5"/>
	<line class="st59" x1="45.7" y1="60.4" x2="46.1" y2="79"/>
	<line class="st59" x1="55.6" y1="68.7" x2="37" y2="69.1"/>
</g>
<g class="all-medals avsm" data-medal="avsm">
	<circle class="st0" cx="34.2" cy="70.4" r="11.6"/>
	<line class="st1" x1="18.6" y1="49.2" x2="49.8" y2="49.2"/>
	<line class="st1" x1="34.2" y1="49.5" x2="34.2" y2="54.7"/>
	<circle class="st2" cx="18.9" cy="49.2" r="1.3"/>
	<circle class="st2" cx="49.3" cy="49.2" r="1.3"/>
	<path class="st3" d="M29,60.5l0-2.8c0-0.8,0.7-1.5,1.5-1.5l7.5,0c0.8,0,1.5,0.7,1.5,1.5l0,2.4"/>
	<path class="st2" d="M36.5,50.7l-4.5,0c-0.2,0-0.4-0.2-0.4-0.4l0-2.3c0-0.2,0.2-0.4,0.4-0.4l4.5,0c0.2,0,0.4,0.2,0.4,0.4l0,2.3
		C36.8,50.5,36.7,50.7,36.5,50.7z"/>
	<path class="st2" d="M36.2,57.4l-4.1,0c-0.3,0-0.6-0.3-0.6-0.6l0-3.8c0-0.3,0.3-0.6,0.6-0.6l4.1,0c0.3,0,0.6,0.3,0.6,0.6l0,3.8
		C36.9,57.2,36.6,57.4,36.2,57.4z"/>
	<path class="st60" d="M20,46.3l28.1,0c0,0-1.6-22.9,0.2-36.7l-28.8,0C19.5,9.7,17.9,32.4,20,46.3z"/>
	<path class="st2" d="M17.9,47.7l0-3.7c0-0.1,0.1-0.2,0.2-0.2l1.5,0c0.1,0,0.2,0.1,0.2,0.2l0,3.7c0,0.1-0.1,0.2-0.2,0.2l-1.5,0
		C18,47.9,17.9,47.8,17.9,47.7z"/>
	<path class="st2" d="M48.3,47.6l0-3.7c0-0.1,0.1-0.2,0.2-0.2l1.5,0c0.1,0,0.2,0.1,0.2,0.2l0,3.7c0,0.1-0.1,0.2-0.2,0.2l-1.5,0
		C48.4,47.9,48.3,47.8,48.3,47.6z"/>
	<path class="st61" d="M29.9,45.8c0,0-2.9-18.9,0-36.2"/>
	<path class="st61" d="M36.6,46.3c0,0-2.9-18.9,0-36.2"/>
</g>
<g class="all-medals uysm" data-medal="uysm">
	<circle class="st62" cx="34.1" cy="70.4" r="11.6"/>
	<line class="st1" x1="18.5" y1="49.2" x2="49.6" y2="49.2"/>
	<line class="st1" x1="34.1" y1="49.4" x2="34.1" y2="54.7"/>
	<circle class="st2" cx="18.7" cy="49.2" r="1.3"/>
	<circle class="st2" cx="49.2" cy="49.2" r="1.3"/>
	<path class="st3" d="M28.8,60.5l0-2.8c0-0.8,0.7-1.5,1.5-1.5l7.5,0c0.8,0,1.5,0.7,1.5,1.5l0,2.4"/>
	<path class="st2" d="M36.3,50.7l-4.5,0c-0.2,0-0.4-0.2-0.4-0.4l0-2.3c0-0.2,0.2-0.4,0.4-0.4l4.5,0c0.2,0,0.4,0.2,0.4,0.4l0,2.3
		C36.7,50.5,36.5,50.7,36.3,50.7z"/>
	<path class="st2" d="M36.1,57.4l-4.1,0c-0.3,0-0.6-0.3-0.6-0.6l0-3.8c0-0.3,0.3-0.6,0.6-0.6l4.1,0c0.3,0,0.6,0.3,0.6,0.6l0,3.8
		C36.7,57.2,36.4,57.4,36.1,57.4z"/>
	<path class="st63" d="M19.8,46.3l28.1,0c0,0-1.6-22.9,0.2-36.7l-28.8,0C19.3,9.7,17.7,32.4,19.8,46.3z"/>
	<path class="st2" d="M17.7,47.7l0-3.7c0-0.1,0.1-0.2,0.2-0.2l1.5,0c0.1,0,0.2,0.1,0.2,0.2l0,3.7c0,0.1-0.1,0.2-0.2,0.2l-1.5,0
		C17.8,47.9,17.7,47.8,17.7,47.7z"/>
	<path class="st2" d="M48.2,47.6l0-3.7c0-0.1,0.1-0.2,0.2-0.2l1.5,0c0.1,0,0.2,0.1,0.2,0.2l0,3.7c0,0.1-0.1,0.2-0.2,0.2l-1.5,0
		C48.3,47.9,48.2,47.8,48.2,47.6z"/>
	<path class="st64" d="M30.7,45.8c0,0-2.9-18.9,0-36.2"/>
	<path class="st64" d="M37.7,46c0,0-2.9-18.9,0-36.2"/>
	<g>
		<polygon class="st65" points="34.1,74.4 28.6,77.6 30,71.4 25.3,67.2 31.5,66.6 34.1,60.8 36.6,66.6 42.9,67.2 38.2,71.4 
			39.5,77.5 		"/>
		<polyline class="st66" points="31.5,66.6 34,70 30,71.4 		"/>
		<polyline class="st66" points="34.1,74.4 34,70 38.2,71.4 		"/>
		<polyline class="st66" points="36.6,66.6 34,70 28.6,77.6 		"/>
		<polyline class="st66" points="39.5,77.5 34,70 42.9,67.2 		"/>
		<polyline class="st66" points="25.3,67.2 34,70 34.1,60.8 		"/>
	</g>
</g>
<g class="all-medals pvsm" data-medal="pvsm">
	<circle class="st67" cx="22" cy="70.4" r="11.6"/>
	<line class="st1" x1="6.4" y1="49.2" x2="37.6" y2="49.2"/>
	<line class="st1" x1="22" y1="49.4" x2="22" y2="54.7"/>
	<circle class="st2" cx="6.6" cy="49.2" r="1.3"/>
	<circle class="st2" cx="37.1" cy="49.2" r="1.3"/>
	<path class="st3" d="M16.7,60.5l0-2.8c0-0.8,0.7-1.5,1.5-1.5l7.5,0c0.8,0,1.5,0.7,1.5,1.5l0,2.4"/>
	<path class="st2" d="M24.3,50.7l-4.5,0c-0.2,0-0.4-0.2-0.4-0.4l0-2.3c0-0.2,0.2-0.4,0.4-0.4l4.5,0c0.2,0,0.4,0.2,0.4,0.4l0,2.3
		C24.6,50.5,24.5,50.7,24.3,50.7z"/>
	<path class="st2" d="M24,57.4l-4.1,0c-0.3,0-0.6-0.3-0.6-0.6l0-3.8c0-0.3,0.3-0.6,0.6-0.6l4.1,0c0.3,0,0.6,0.3,0.6,0.6l0,3.8
		C24.6,57.2,24.4,57.4,24,57.4z"/>
	<path class="st60" d="M7.8,46.3l28.1,0c0,0-1.6-22.9,0.2-36.7l-28.8,0C7.3,9.7,5.6,32.4,7.8,46.3z"/>
	<path class="st2" d="M5.6,47.7l0-3.7c0-0.1,0.1-0.2,0.2-0.2l1.5,0c0.1,0,0.2,0.1,0.2,0.2l0,3.7c0,0.1-0.1,0.2-0.2,0.2l-1.5,0
		C5.7,47.9,5.6,47.8,5.6,47.7z"/>
	<path class="st2" d="M36.1,47.6l0-3.7c0-0.1,0.1-0.2,0.2-0.2l1.5,0c0.1,0,0.2,0.1,0.2,0.2l0,3.7c0,0.1-0.1,0.2-0.2,0.2l-1.5,0
		C36.2,47.9,36.1,47.8,36.1,47.6z"/>
	<path class="st61" d="M20.7,45.9c0,0-2.9-18.9,0-36.2"/>
	<g>
		<polygon class="st68" points="22,74.4 16.6,77.6 17.9,71.4 13.2,67.2 19.5,66.6 22,60.8 24.5,66.6 30.8,67.2 26.1,71.4 27.5,77.5 
					"/>
		<polyline class="st69" points="19.5,66.6 22,70 17.9,71.4 		"/>
		<polyline class="st69" points="22,74.4 22,70 26.1,71.4 		"/>
		<polyline class="st69" points="24.5,66.6 22,70 16.6,77.6 		"/>
		<polyline class="st69" points="27.5,77.5 22,70 30.8,67.2 		"/>
		<polyline class="st69" points="13.2,67.2 22,70 22,60.8 		"/>
	</g>
</g>
</svg>
