<?xml version="1.0" encoding="utf-8"?>
<!-- Generator: Adobe Illustrator 24.0.2, SVG Export Plug-In . SVG Version: 6.00 Build 0)  -->
<svg version="1.1" id="army-medals" xmlns="http://www.w3.org/2000/svg" xmlns:xlink="http://www.w3.org/1999/xlink" x="0px"
	 y="0px" viewBox="0 0 169 88" style="enable-background:new 0 0 169 88;" xml:space="preserve">
<style type="text/css">
	#army-medals .st0{fill:#868686;stroke:#1D1D1B;stroke-width:1.1407;stroke-miterlimit:10;}
	#army-medals .st1{fill:none;stroke:#1D1D1B;stroke-width:1.1407;stroke-miterlimit:10;}
	#army-medals .st2{fill:#1D1D1B;}
	#army-medals .st3{fill:none;stroke:#1D1D1B;stroke-width:0.9891;stroke-miterlimit:10;}
	#army-medals .st4{fill:#00A162;stroke:#1D1D1B;stroke-width:0.9891;stroke-miterlimit:10;}
	#army-medals .st5{fill:none;stroke:#1D1D1B;stroke-width:0.4945;stroke-miterlimit:10;}
	#army-medals .st6{fill:#222160;stroke:#1D1D1B;stroke-miterlimit:10;}
	#army-medals .st7{fill:#6586C4;}
	#army-medals .st8{fill:#ED1C24;}
	#army-medals .st9{fill:#868686;stroke:#1D1D1B;stroke-width:1.1506;stroke-miterlimit:10;}
	#army-medals .st10{fill:none;stroke:#1D1D1B;stroke-width:1.1506;stroke-miterlimit:10;}
	#army-medals .st11{fill:none;stroke:#1D1D1B;stroke-width:0.9976;stroke-miterlimit:10;}
	#army-medals .st12{fill:#F79341;stroke:#1D1D1B;stroke-width:0.9891;stroke-miterlimit:10;}
	#army-medals .st13{fill:#26266C;}
	#army-medals .st14{fill:#719DD3;}
	#army-medals .st15{fill:#505F86;stroke:#1D1D1B;stroke-width:0.9976;stroke-miterlimit:10;}
	#army-medals .st16{fill:none;stroke:#FFFFFF;stroke-width:1.1503;stroke-miterlimit:10;}
	#army-medals .st17{fill:#EF8722;stroke:#1D1D1B;stroke-width:0.9891;stroke-miterlimit:10;}
	#army-medals .st18{fill:none;stroke:#1F3A22;stroke-miterlimit:10;}
	#army-medals .st19{fill:none;stroke:#D0D0D0;stroke-miterlimit:10;}
	#army-medals .st20{fill:#38795E;stroke:#000000;stroke-miterlimit:10;}
	#army-medals .st21{fill:#8AB2CC;}
	#army-medals .st22{fill:#F3F3F3;}
	#army-medals .st23{fill:#CF2026;}
	#army-medals .st24{fill:#AA9274;}
	#army-medals .st25{fill:#7E92A4;}
	#army-medals .st26{fill:#066634;stroke:#000000;stroke-miterlimit:10;}
	#army-medals .st27{clip-path:url(#SVGID_1_);fill:#5F8BC8;}
	#army-medals .st28{clip-path:url(#SVGID_1_);fill:#26266C;}
	#army-medals .st29{clip-path:url(#SVGID_1_);fill:#CF2026;}
	#army-medals .st30{fill:#FEEC5E;stroke:#1D1D1B;stroke-width:0.9891;stroke-miterlimit:10;}
	#army-medals .st31{fill:none;stroke:#2A2665;stroke-miterlimit:10;}
	#army-medals .st32{fill:#D02327;stroke:#000000;stroke-miterlimit:10;}
	#army-medals .st33{fill:none;stroke:#CCCCCB;stroke-width:2;stroke-miterlimit:10;}
	#army-medals .st34{fill:#E65125;stroke:#1D1D1B;stroke-width:1.1407;stroke-miterlimit:10;}
	#army-medals .st35{fill:#F7B132;stroke:#F19220;stroke-width:0.1983;stroke-linecap:round;stroke-linejoin:round;stroke-miterlimit:10;}
	#army-medals .st36{fill:none;stroke:#F19220;stroke-width:0.1983;stroke-linecap:round;stroke-linejoin:round;stroke-miterlimit:10;}
</style>
<g class="all-medals nineyears" data-medal="nineyears">
	<g>
		<circle class="st0" cx="149.2" cy="68.8" r="11.6"/>
		<line class="st1" x1="133.6" y1="47.6" x2="164.8" y2="47.6"/>
		<line class="st1" x1="149.2" y1="47.8" x2="149.2" y2="53.1"/>
		<circle class="st2" cx="133.8" cy="47.6" r="1.3"/>
		<circle class="st2" cx="164.3" cy="47.6" r="1.3"/>
		<path class="st3" d="M143.9,58.9l0-2.8c0-0.8,0.7-1.5,1.5-1.5l7.5,0c0.8,0,1.5,0.7,1.5,1.5l0,2.4"/>
		<path class="st2" d="M151.5,49.1l-4.5,0c-0.2,0-0.4-0.2-0.4-0.4l0-2.3c0-0.2,0.2-0.4,0.4-0.4l4.5,0c0.2,0,0.4,0.2,0.4,0.4l0,2.3
			C151.8,48.9,151.7,49.1,151.5,49.1z"/>
		<path class="st2" d="M151.2,55.8l-4.1,0c-0.3,0-0.6-0.3-0.6-0.6l0-3.8c0-0.3,0.3-0.6,0.6-0.6l4.1,0c0.3,0,0.6,0.3,0.6,0.6l0,3.8
			C151.8,55.6,151.6,55.8,151.2,55.8z"/>
		<path class="st4" d="M135,44.7l28.1,0c0,0-1.6-22.9,0.2-36.7l-28.8,0C134.5,8.1,132.8,30.8,135,44.7z"/>
		<path class="st2" d="M132.8,46.1l0-3.7c0-0.1,0.1-0.2,0.2-0.2l1.5,0c0.1,0,0.2,0.1,0.2,0.2l0,3.7c0,0.1-0.1,0.2-0.2,0.2l-1.5,0
			C132.9,46.3,132.8,46.2,132.8,46.1z"/>
		<path class="st2" d="M163.3,46l0-3.7c0-0.1,0.1-0.2,0.2-0.2l1.5,0c0.1,0,0.2,0.1,0.2,0.2l0,3.7c0,0.1-0.1,0.2-0.2,0.2l-1.5,0
			C163.4,46.3,163.3,46.2,163.3,46z"/>
	</g>
	<g>
		<path class="st5" d="M159.1,44.7c0,0-1.6-22.9,0.2-36.7"/>
		<path class="st5" d="M154.9,44.7c0,0-1.6-22.9,0.2-36.7"/>
		<path class="st5" d="M150.6,44.7c0,0-1.6-22.9,0.2-36.7"/>
		<path class="st5" d="M146.3,44.7c0,0-1.6-22.9,0.2-36.7"/>
		<path class="st5" d="M142,44.7c0,0-1.6-22.9,0.2-36.7"/>
		<path class="st5" d="M137.8,44.7c0,0-1.6-22.9,0.2-36.7"/>
	</g>
</g>
<g class="all-medals twentyyears" data-medal="twentyyears">
	<circle class="st0" cx="136.9" cy="68.8" r="11.6"/>
	<line class="st1" x1="121.3" y1="47.6" x2="152.5" y2="47.6"/>
	<line class="st1" x1="136.9" y1="47.8" x2="136.9" y2="53.1"/>
	<circle class="st2" cx="121.5" cy="47.6" r="1.3"/>
	<circle class="st2" cx="152" cy="47.6" r="1.3"/>
	<path class="st3" d="M131.6,58.9l0-2.8c0-0.8,0.7-1.5,1.5-1.5l7.5,0c0.8,0,1.5,0.7,1.5,1.5l0,2.4"/>
	<path class="st2" d="M139.2,49.1l-4.5,0c-0.2,0-0.4-0.2-0.4-0.4l0-2.3c0-0.2,0.2-0.4,0.4-0.4l4.5,0c0.2,0,0.4,0.2,0.4,0.4l0,2.3
		C139.5,48.9,139.4,49.1,139.2,49.1z"/>
	<path class="st2" d="M138.9,55.8l-4.1,0c-0.3,0-0.6-0.3-0.6-0.6l0-3.8c0-0.3,0.3-0.6,0.6-0.6l4.1,0c0.3,0,0.6,0.3,0.6,0.6l0,3.8
		C139.5,55.6,139.3,55.8,138.9,55.8z"/>
	<path class="st6" d="M122.7,44.7l28.1,0c0,0-1.6-22.9,0.2-36.7l-28.8,0C122.2,8.1,120.5,30.8,122.7,44.7z"/>
	<path class="st2" d="M120.5,46.1l0-3.7c0-0.1,0.1-0.2,0.2-0.2l1.5,0c0.1,0,0.2,0.1,0.2,0.2l0,3.7c0,0.1-0.1,0.2-0.2,0.2l-1.5,0
		C120.6,46.3,120.5,46.2,120.5,46.1z"/>
	<path class="st2" d="M151,46l0-3.7c0-0.1,0.1-0.2,0.2-0.2l1.5,0c0.1,0,0.2,0.1,0.2,0.2l0,3.7c0,0.1-0.1,0.2-0.2,0.2l-1.5,0
		C151.1,46.3,151,46.2,151,46z"/>
	<path class="st7" d="M141.6,8.5c0,0-1.3,6.5-1.3,16.3c0,5.7,0.9,12,1.3,19.3l8.5,0c0,0-1-32.4,0.6-35.7L141.6,8.5z"/>
	<path class="st8" d="M122.6,8.4l8.4,0.1c0,0-1,11.1-0.9,16.5c0,5.4,1.5,19.2,1.5,19.2l-8.6,0.1C123.1,44.3,120.9,20.9,122.6,8.4z"
		/>
</g>
<g class="all-medals thirtyyears" data-medal="thirtyyears">
	<circle class="st9" cx="126.2" cy="69" r="11.7"/>
	<line class="st10" x1="110.5" y1="47.6" x2="141.9" y2="47.6"/>
	<line class="st10" x1="126.2" y1="47.9" x2="126.2" y2="53.2"/>
	<circle class="st2" cx="110.7" cy="47.6" r="1.3"/>
	<circle class="st2" cx="141.5" cy="47.6" r="1.3"/>
	<path class="st11" d="M120.9,59l0-2.8c0-0.8,0.7-1.5,1.5-1.5l7.6,0c0.8,0,1.5,0.7,1.5,1.5l0,2.5"/>
	<path class="st2" d="M128.5,49.1l-4.6,0c-0.2,0-0.4-0.2-0.4-0.4l0-2.4c0-0.2,0.2-0.4,0.4-0.4l4.6,0c0.2,0,0.4,0.2,0.4,0.4l0,2.4
		C128.9,49,128.7,49.1,128.5,49.1z"/>
	<path class="st2" d="M128.3,55.9l-4.1,0c-0.3,0-0.6-0.3-0.6-0.6l0-3.9c0-0.3,0.3-0.6,0.6-0.6l4.1,0c0.3,0,0.6,0.3,0.6,0.6l0,3.9
		C128.9,55.7,128.6,55.9,128.3,55.9z"/>
	<path class="st12" d="M111.9,44.7l28.4,0c0,0-1.6-23.1,0.2-37l-29.1,0C111.4,7.8,109.7,30.6,111.9,44.7z"/>
	<path class="st2" d="M109.7,46.1l0-3.7c0-0.1,0.1-0.2,0.2-0.2l1.5,0c0.1,0,0.2,0.1,0.2,0.2l0,3.7c0,0.1-0.1,0.2-0.2,0.2l-1.5,0
		C109.8,46.3,109.7,46.2,109.7,46.1z"/>
	<path class="st2" d="M140.4,46l0-3.7c0-0.1,0.1-0.2,0.2-0.2l1.5,0c0.1,0,0.2,0.1,0.2,0.2l0,3.7c0,0.1-0.1,0.2-0.2,0.2l-1.5,0
		C140.6,46.3,140.4,46.2,140.4,46z"/>
	
		<rect x="123.9" y="8.2" transform="matrix(1 -3.782037e-03 3.782037e-03 1 -9.801022e-02 0.475)" class="st13" width="3.2" height="35.9"/>
	
		<rect x="120.9" y="8.3" transform="matrix(1 -3.782037e-03 3.782037e-03 1 -9.844553e-02 0.4634)" class="st8" width="3.2" height="35.9"/>
	
		<rect x="127.1" y="8.2" transform="matrix(1 -3.782037e-03 3.782037e-03 1 -9.812787e-02 0.487)" class="st14" width="3.2" height="35.9"/>
</g>
<g class="all-medals vsm2" data-medal="vsm2">
	<circle class="st9" cx="114.9" cy="69" r="11.7"/>
	<line class="st10" x1="99.2" y1="47.6" x2="130.6" y2="47.6"/>
	<line class="st10" x1="114.9" y1="47.9" x2="114.9" y2="53.2"/>
	<circle class="st2" cx="99.4" cy="47.6" r="1.3"/>
	<circle class="st2" cx="130.1" cy="47.6" r="1.3"/>
	<path class="st11" d="M109.6,59l0-2.8c0-0.8,0.7-1.5,1.5-1.5l7.6,0c0.8,0,1.5,0.7,1.5,1.5l0,2.5"/>
	<path class="st2" d="M117.2,49.1l-4.6,0c-0.2,0-0.4-0.2-0.4-0.4l0-2.4c0-0.2,0.2-0.4,0.4-0.4l4.6,0c0.2,0,0.4,0.2,0.4,0.4l0,2.4
		C117.5,49,117.4,49.1,117.2,49.1z"/>
	<path class="st2" d="M116.9,55.9l-4.1,0c-0.3,0-0.6-0.3-0.6-0.6l0-3.9c0-0.3,0.3-0.6,0.6-0.6l4.1,0c0.3,0,0.6,0.3,0.6,0.6l0,3.9
		C117.5,55.7,117.3,55.9,116.9,55.9z"/>
	<path class="st15" d="M100.5,44.7l28.4,0c0,0-1.6-23.1,0.2-37l-29.1,0C100,7.8,98.4,30.6,100.5,44.7z"/>
	<path class="st2" d="M98.4,46.1l0-3.7c0-0.1,0.1-0.2,0.2-0.2l1.5,0c0.1,0,0.2,0.1,0.2,0.2l0,3.7c0,0.1-0.1,0.2-0.2,0.2l-1.5,0
		C98.5,46.3,98.4,46.2,98.4,46.1z"/>
	<path class="st2" d="M129.1,46l0-3.7c0-0.1,0.1-0.2,0.2-0.2l1.5,0c0.1,0,0.2,0.1,0.2,0.2l0,3.7c0,0.1-0.1,0.2-0.2,0.2l-1.5,0
		C129.2,46.3,129.1,46.2,129.1,46z"/>
	<path class="st16" d="M114.5,44.1c0,0-2.1-18.1,0-35.8"/>
	<path class="st16" d="M110.3,43.9c0,0-2.1-18.1,0-35.8"/>
	<path class="st16" d="M123.9,44.3c0,0-2.1-18.1,0-35.8"/>
	<path class="st16" d="M104.7,43.8c0,0-2.1-18.1,0-35.8"/>
	<path class="st16" d="M119,44.1c0,0-2.1-18.6,0-35.8"/>
</g>
<g class="all-medals ssm3" data-medal="ssm3">
	<circle class="st0" cx="103.6" cy="68.8" r="11.6"/>
	<line class="st1" x1="88" y1="47.6" x2="119.2" y2="47.6"/>
	<line class="st1" x1="103.6" y1="47.8" x2="103.6" y2="53.1"/>
	<circle class="st2" cx="88.2" cy="47.6" r="1.3"/>
	<circle class="st2" cx="118.7" cy="47.6" r="1.3"/>
	<path class="st3" d="M98.4,58.9l0-2.8c0-0.8,0.7-1.5,1.5-1.5l7.5,0c0.8,0,1.5,0.7,1.5,1.5l0,2.4"/>
	<path class="st2" d="M105.9,49.1l-4.5,0c-0.2,0-0.4-0.2-0.4-0.4l0-2.3c0-0.2,0.2-0.4,0.4-0.4l4.5,0c0.2,0,0.4,0.2,0.4,0.4l0,2.3
		C106.2,48.9,106.1,49.1,105.9,49.1z"/>
	<path class="st2" d="M105.6,55.8l-4.1,0c-0.3,0-0.6-0.3-0.6-0.6l0-3.8c0-0.3,0.3-0.6,0.6-0.6l4.1,0c0.3,0,0.6,0.3,0.6,0.6l0,3.8
		C106.2,55.6,106,55.8,105.6,55.8z"/>
	<path class="st17" d="M89.4,44.7l28.1,0c0,0-1.6-22.9,0.2-36.7l-28.8,0C88.9,8.1,87.3,30.8,89.4,44.7z"/>
	<path class="st2" d="M87.2,46.1l0-3.7c0-0.1,0.1-0.2,0.2-0.2l1.5,0c0.1,0,0.2,0.1,0.2,0.2l0,3.7c0,0.1-0.1,0.2-0.2,0.2l-1.5,0
		C87.4,46.3,87.2,46.2,87.2,46.1z"/>
	<path class="st2" d="M117.7,46l0-3.7c0-0.1,0.1-0.2,0.2-0.2l1.5,0c0.1,0,0.2,0.1,0.2,0.2l0,3.7c0,0.1-0.1,0.2-0.2,0.2l-1.5,0
		C117.8,46.3,117.7,46.2,117.7,46z"/>
	<path class="st18" d="M105.8,8.7c0,0-3.5,15.6-0.1,35.6"/>
	<path class="st19" d="M98.2,8.6c0,0-2.9,9.1-0.5,35.4"/>
</g>
<g class="all-medals opm" data-medal="opm">
	<circle class="st0" cx="91.6" cy="68.8" r="11.6"/>
	<line class="st1" x1="76" y1="47.6" x2="107.1" y2="47.6"/>
	<line class="st1" x1="91.5" y1="47.8" x2="91.6" y2="53.1"/>
	<circle class="st2" cx="76.2" cy="47.6" r="1.3"/>
	<circle class="st2" cx="106.7" cy="47.6" r="1.3"/>
	<path class="st3" d="M86.3,58.9l0-2.8c0-0.8,0.7-1.5,1.5-1.5l7.5,0c0.8,0,1.5,0.7,1.5,1.5l0,2.4"/>
	<path class="st2" d="M93.8,49.1l-4.5,0c-0.2,0-0.4-0.2-0.4-0.4l0-2.3c0-0.2,0.2-0.4,0.4-0.4l4.5,0c0.2,0,0.4,0.2,0.4,0.4l0,2.3
		C94.2,48.9,94,49.1,93.8,49.1z"/>
	<path class="st2" d="M93.6,55.8l-4.1,0c-0.3,0-0.6-0.3-0.6-0.6l0-3.8c0-0.3,0.3-0.6,0.6-0.6l4.1,0c0.3,0,0.6,0.3,0.6,0.6l0,3.8
		C94.2,55.6,93.9,55.8,93.6,55.8z"/>
	<path class="st20" d="M77.3,44.7l28.1,0c0,0-1.6-22.9,0.2-36.7l-28.8,0C76.8,8.1,75.2,30.8,77.3,44.7z"/>
	<path class="st2" d="M75.2,46.1l0-3.7c0-0.1,0.1-0.2,0.2-0.2l1.5,0c0.1,0,0.2,0.1,0.2,0.2l0,3.7c0,0.1-0.1,0.2-0.2,0.2l-1.5,0
		C75.3,46.3,75.2,46.2,75.2,46.1z"/>
	<path class="st2" d="M105.7,46l0-3.7c0-0.1,0.1-0.2,0.2-0.2l1.5,0c0.1,0,0.2,0.1,0.2,0.2l0,3.7c0,0.1-0.1,0.2-0.2,0.2l-1.5,0
		C105.8,46.3,105.7,46.2,105.7,46z"/>
	<path class="st21" d="M97.6,8.5c0,0-0.7,27.1,0.2,35.8l7-0.1c0,0-0.9-33.3,0.4-35.6L97.6,8.5z"/>
	<path class="st22" d="M95.7,8.5l1.8-0.1c0,0-0.4,33.2,0.4,35.8l-2.3-0.1C95.6,44.2,95.1,9.4,95.7,8.5z"/>
	<path class="st23" d="M84.5,8.7l1.8-0.1c0,0-0.4,33,0.4,35.5l-2.4,0C84.3,44.2,83.9,9.6,84.5,8.7z"/>
	<path class="st24" d="M84.5,8.7l-7.2-0.2c0,0-0.9,28.8,0.5,35.6l6.6,0C84.3,44.2,83.5,10.8,84.5,8.7z"/>
</g>
<g class="all-medals ssm2" data-medal="ssm2">
	<circle class="st0" cx="80" cy="68.8" r="11.6"/>
	<line class="st1" x1="64.4" y1="47.6" x2="95.5" y2="47.6"/>
	<line class="st1" x1="80" y1="47.8" x2="80" y2="53.1"/>
	<circle class="st2" cx="64.6" cy="47.6" r="1.3"/>
	<circle class="st2" cx="95.1" cy="47.6" r="1.3"/>
	<path class="st3" d="M74.7,58.9l0-2.8c0-0.8,0.7-1.5,1.5-1.5l7.5,0c0.8,0,1.5,0.7,1.5,1.5l0,2.4"/>
	<path class="st2" d="M82.2,49.1l-4.5,0c-0.2,0-0.4-0.2-0.4-0.4l0-2.3c0-0.2,0.2-0.4,0.4-0.4l4.5,0c0.2,0,0.4,0.2,0.4,0.4l0,2.3
		C82.6,48.9,82.4,49.1,82.2,49.1z"/>
	<path class="st2" d="M82,55.8l-4.1,0c-0.3,0-0.6-0.3-0.6-0.6l0-3.8c0-0.3,0.3-0.6,0.6-0.6l4.1,0c0.3,0,0.6,0.3,0.6,0.6l0,3.8
		C82.6,55.6,82.3,55.8,82,55.8z"/>
	<path class="st25" d="M65.8,44.7l28.1,0c0,0-1.6-22.9,0.2-36.7l-28.8,0C65.3,8.1,63.6,30.8,65.8,44.7z"/>
	<path class="st2" d="M63.6,46.1l0-3.7c0-0.1,0.1-0.2,0.2-0.2l1.5,0c0.1,0,0.2,0.1,0.2,0.2l0,3.7c0,0.1-0.1,0.2-0.2,0.2l-1.5,0
		C63.7,46.3,63.6,46.2,63.6,46.1z"/>
	<path class="st2" d="M94.1,46l0-3.7c0-0.1,0.1-0.2,0.2-0.2l1.5,0c0.1,0,0.2,0.1,0.2,0.2l0,3.7c0,0.1-0.1,0.2-0.2,0.2l-1.5,0
		C94.2,46.3,94.1,46.2,94.1,46z"/>
	<path class="st8" d="M85,8.1c0,0-1.3,16.7-0.3,36.5l9.2,0.1c0,0-1.4-33.4,0.2-36.7L85,8.1z"/>
	<path class="st8" d="M65.3,8.1l8.8,0.1c0,0-1,34.2,1.6,36.5l-9.4,0.1C66.4,44.8,63.8,11.9,65.3,8.1z"/>
</g>
<g class="all-medals ssm1" data-medal="ssm1">
	<circle class="st0" cx="68.9" cy="68.8" r="11.6"/>
	<line class="st1" x1="53.3" y1="47.6" x2="84.4" y2="47.6"/>
	<line class="st1" x1="68.9" y1="47.8" x2="68.9" y2="53.1"/>
	<circle class="st2" cx="53.5" cy="47.6" r="1.3"/>
	<circle class="st2" cx="84" cy="47.6" r="1.3"/>
	<path class="st3" d="M63.6,58.9l0-2.8c0-0.8,0.7-1.5,1.5-1.5l7.5,0c0.8,0,1.5,0.7,1.5,1.5l0,2.4"/>
	<path class="st2" d="M71.1,49.1l-4.5,0c-0.2,0-0.4-0.2-0.4-0.4l0-2.3c0-0.2,0.2-0.4,0.4-0.4l4.5,0c0.2,0,0.4,0.2,0.4,0.4l0,2.3
		C71.5,48.9,71.3,49.1,71.1,49.1z"/>
	<path class="st2" d="M70.9,55.8l-4.1,0c-0.3,0-0.6-0.3-0.6-0.6l0-3.8c0-0.3,0.3-0.6,0.6-0.6l4.1,0c0.3,0,0.6,0.3,0.6,0.6l0,3.8
		C71.5,55.6,71.2,55.8,70.9,55.8z"/>
	<path class="st2" d="M52.5,46.1l0-3.7c0-0.1,0.1-0.2,0.2-0.2l1.5,0c0.1,0,0.2,0.1,0.2,0.2l0,3.7c0,0.1-0.1,0.2-0.2,0.2l-1.5,0
		C52.6,46.3,52.5,46.2,52.5,46.1z"/>
	<path class="st2" d="M83,46l0-3.7c0-0.1,0.1-0.2,0.2-0.2l1.5,0c0.1,0,0.2,0.1,0.2,0.2l0,3.7c0,0.1-0.1,0.2-0.2,0.2l-1.5,0
		C83.1,46.3,83,46.2,83,46z"/>
	<g>
		<path class="st26" d="M54.7,44.7l28.1,0c0,0-1.6-22.9,0.2-36.7l-28.8,0C54.1,8.1,52.5,30.8,54.7,44.7z"/>
		<g>
			<defs>
				<polygon id="SVGID_3_" points="54.6,8.6 82.2,8.6 82.4,44.2 55,44.1 				"/>
			</defs>
			<clipPath id="SVGID_1_">
				<use xlink:href="#SVGID_3_"  style="overflow:visible;"/>
			</clipPath>
			
				<rect x="74.6" y="8.1" transform="matrix(1 -7.797641e-03 7.797641e-03 1 -0.2031 0.6011)" class="st27" width="4.7" height="36.6"/>
			
				<rect x="65.6" y="8.1" transform="matrix(1 -7.797641e-03 7.797641e-03 1 -0.2034 0.5309)" class="st28" width="4.7" height="36.6"/>
			
				<rect x="57.6" y="8" transform="matrix(1 -7.797641e-03 7.797641e-03 1 -0.2037 0.4686)" class="st29" width="4.7" height="36.7"/>
		</g>
	</g>
</g>
<g class="all-medals vsm1" data-medal="vsm1">
	<circle class="st0" cx="57.6" cy="68.8" r="11.6"/>
	<line class="st1" x1="42" y1="47.6" x2="73.2" y2="47.6"/>
	<line class="st1" x1="57.6" y1="47.8" x2="57.6" y2="53.1"/>
	<circle class="st2" cx="42.3" cy="47.6" r="1.3"/>
	<circle class="st2" cx="72.7" cy="47.6" r="1.3"/>
	<path class="st3" d="M52.4,58.9l0-2.8c0-0.8,0.7-1.5,1.5-1.5l7.5,0c0.8,0,1.5,0.7,1.5,1.5l0,2.4"/>
	<path class="st2" d="M59.9,49.1l-4.5,0c-0.2,0-0.4-0.2-0.4-0.4l0-2.3c0-0.2,0.2-0.4,0.4-0.4l4.5,0c0.2,0,0.4,0.2,0.4,0.4l0,2.3
		C60.2,48.9,60.1,49.1,59.9,49.1z"/>
	<path class="st2" d="M59.6,55.8l-4.1,0c-0.3,0-0.6-0.3-0.6-0.6l0-3.8c0-0.3,0.3-0.6,0.6-0.6l4.1,0c0.3,0,0.6,0.3,0.6,0.6l0,3.8
		C60.2,55.6,60,55.8,59.6,55.8z"/>
	<path class="st30" d="M43.4,44.7l28.1,0c0,0-1.6-22.9,0.2-36.7l-28.8,0C42.9,8.1,41.3,30.8,43.4,44.7z"/>
	<path class="st2" d="M41.2,46.1l0-3.7c0-0.1,0.1-0.2,0.2-0.2l1.5,0c0.1,0,0.2,0.1,0.2,0.2l0,3.7c0,0.1-0.1,0.2-0.2,0.2l-1.5,0
		C41.4,46.3,41.2,46.2,41.2,46.1z"/>
	<path class="st2" d="M71.7,46l0-3.7c0-0.1,0.1-0.2,0.2-0.2l1.5,0c0.1,0,0.2,0.1,0.2,0.2l0,3.7c0,0.1-0.1,0.2-0.2,0.2l-1.5,0
		C71.8,46.3,71.7,46.2,71.7,46z"/>
	<path class="st31" d="M49.9,8.4c0,0-1.7,24.5,0.3,35.5"/>
	<path class="st31" d="M55.9,8.6c0,0-1.7,24.5,0.3,35.5"/>
	<path class="st31" d="M61.9,8.8c0,0-1.7,24.5,0.3,35.5"/>
</g>
<g class="all-medals sm" data-medal="sm">
	<circle class="st0" cx="45.6" cy="68.8" r="11.6"/>
	<line class="st1" x1="30" y1="47.6" x2="61.1" y2="47.6"/>
	<line class="st1" x1="45.6" y1="47.8" x2="45.6" y2="53.1"/>
	<circle class="st2" cx="30.2" cy="47.6" r="1.3"/>
	<circle class="st2" cx="60.7" cy="47.6" r="1.3"/>
	<path class="st3" d="M40.3,58.9l0-2.8c0-0.8,0.7-1.5,1.5-1.5l7.5,0c0.8,0,1.5,0.7,1.5,1.5l0,2.4"/>
	<path class="st2" d="M47.8,49.1l-4.5,0c-0.2,0-0.4-0.2-0.4-0.4l0-2.3c0-0.2,0.2-0.4,0.4-0.4l4.5,0c0.2,0,0.4,0.2,0.4,0.4l0,2.3
		C48.2,48.9,48,49.1,47.8,49.1z"/>
	<path class="st2" d="M47.6,55.8l-4.1,0c-0.3,0-0.6-0.3-0.6-0.6l0-3.8c0-0.3,0.3-0.6,0.6-0.6l4.1,0c0.3,0,0.6,0.3,0.6,0.6l0,3.8
		C48.2,55.6,47.9,55.8,47.6,55.8z"/>
	<path class="st32" d="M31.4,44.7l28.1,0c0,0-1.6-22.9,0.2-36.7l-28.8,0C30.9,8.1,29.2,30.8,31.4,44.7z"/>
	<path class="st2" d="M29.2,46.1l0-3.7c0-0.1,0.1-0.2,0.2-0.2l1.5,0c0.1,0,0.2,0.1,0.2,0.2l0,3.7c0,0.1-0.1,0.2-0.2,0.2l-1.5,0
		C29.3,46.3,29.2,46.2,29.2,46.1z"/>
	<path class="st2" d="M59.7,46l0-3.7c0-0.1,0.1-0.2,0.2-0.2l1.5,0c0.1,0,0.2,0.1,0.2,0.2l0,3.7c0,0.1-0.1,0.2-0.2,0.2l-1.5,0
		C59.8,46.3,59.7,46.2,59.7,46z"/>
	<path class="st33" d="M44.4,44.1c0,0,0-18.4-0.1-35.6"/>
</g>
<g class="all-medals avsm" data-medal="avsm">
	<circle class="st0" cx="34.2" cy="68.8" r="11.6"/>
	<line class="st1" x1="18.6" y1="47.6" x2="49.8" y2="47.6"/>
	<line class="st1" x1="34.2" y1="47.9" x2="34.2" y2="53.1"/>
	<circle class="st2" cx="18.9" cy="47.6" r="1.3"/>
	<circle class="st2" cx="49.3" cy="47.6" r="1.3"/>
	<path class="st3" d="M29,58.9l0-2.8c0-0.8,0.7-1.5,1.5-1.5l7.5,0c0.8,0,1.5,0.7,1.5,1.5l0,2.4"/>
	<path class="st2" d="M36.5,49.1l-4.5,0c-0.2,0-0.4-0.2-0.4-0.4l0-2.3c0-0.2,0.2-0.4,0.4-0.4l4.5,0c0.2,0,0.4,0.2,0.4,0.4l0,2.3
		C36.8,48.9,36.7,49.1,36.5,49.1z"/>
	<path class="st2" d="M36.2,55.8l-4.1,0c-0.3,0-0.6-0.3-0.6-0.6l0-3.8c0-0.3,0.3-0.6,0.6-0.6l4.1,0c0.3,0,0.6,0.3,0.6,0.6l0,3.8
		C36.9,55.6,36.6,55.8,36.2,55.8z"/>
	<path class="st30" d="M20,44.7l28.1,0c0,0-1.6-22.9,0.2-36.7l-28.8,0C19.5,8.1,17.9,30.8,20,44.7z"/>
	<path class="st2" d="M17.9,46.1l0-3.7c0-0.1,0.1-0.2,0.2-0.2l1.5,0c0.1,0,0.2,0.1,0.2,0.2l0,3.7c0,0.1-0.1,0.2-0.2,0.2l-1.5,0
		C18,46.3,17.9,46.2,17.9,46.1z"/>
	<path class="st2" d="M48.3,46l0-3.7c0-0.1,0.1-0.2,0.2-0.2l1.5,0c0.1,0,0.2,0.1,0.2,0.2l0,3.7c0,0.1-0.1,0.2-0.2,0.2l-1.5,0
		C48.4,46.3,48.3,46.2,48.3,46z"/>
	<path class="st31" d="M29.9,44.2c0,0-2.9-18.9,0-36.2"/>
	<path class="st31" d="M36.6,44.7c0,0-2.9-18.9,0-36.2"/>
</g>
<g class="all-medals pvsm" data-medal="pvsm">
	<circle class="st34" cx="22" cy="68.8" r="11.6"/>
	<line class="st1" x1="6.4" y1="47.6" x2="37.6" y2="47.6"/>
	<line class="st1" x1="22" y1="47.8" x2="22" y2="53.1"/>
	<circle class="st2" cx="6.6" cy="47.6" r="1.3"/>
	<circle class="st2" cx="37.1" cy="47.6" r="1.3"/>
	<path class="st3" d="M16.7,58.9l0-2.8c0-0.8,0.7-1.5,1.5-1.5l7.5,0c0.8,0,1.5,0.7,1.5,1.5l0,2.4"/>
	<path class="st2" d="M24.3,49.1l-4.5,0c-0.2,0-0.4-0.2-0.4-0.4l0-2.3c0-0.2,0.2-0.4,0.4-0.4l4.5,0c0.2,0,0.4,0.2,0.4,0.4l0,2.3
		C24.6,48.9,24.5,49.1,24.3,49.1z"/>
	<path class="st2" d="M24,55.8l-4.1,0c-0.3,0-0.6-0.3-0.6-0.6l0-3.8c0-0.3,0.3-0.6,0.6-0.6l4.1,0c0.3,0,0.6,0.3,0.6,0.6l0,3.8
		C24.6,55.6,24.4,55.8,24,55.8z"/>
	<path class="st30" d="M7.8,44.7l28.1,0c0,0-1.6-22.9,0.2-36.7l-28.8,0C7.3,8.1,5.6,30.8,7.8,44.7z"/>
	<path class="st2" d="M5.6,46.1l0-3.7c0-0.1,0.1-0.2,0.2-0.2l1.5,0c0.1,0,0.2,0.1,0.2,0.2l0,3.7c0,0.1-0.1,0.2-0.2,0.2l-1.5,0
		C5.7,46.3,5.6,46.2,5.6,46.1z"/>
	<path class="st2" d="M36.1,46l0-3.7c0-0.1,0.1-0.2,0.2-0.2l1.5,0c0.1,0,0.2,0.1,0.2,0.2l0,3.7c0,0.1-0.1,0.2-0.2,0.2l-1.5,0
		C36.2,46.3,36.1,46.2,36.1,46z"/>
	<path class="st31" d="M20.7,44.3c0,0-2.9-18.9,0-36.2"/>
	<g>
		<polygon class="st35" points="22,72.8 16.6,76 17.9,69.8 13.2,65.6 19.5,65 22,59.2 24.5,65 30.8,65.6 26.1,69.8 27.5,75.9 		"/>
		<polyline class="st36" points="19.5,65 22,68.4 17.9,69.8 		"/>
		<polyline class="st36" points="22,72.8 22,68.4 26.1,69.8 		"/>
		<polyline class="st36" points="24.5,65 22,68.4 16.6,76 		"/>
		<polyline class="st36" points="27.5,75.9 22,68.4 30.8,65.6 		"/>
		<polyline class="st36" points="13.2,65.6 22,68.4 22,59.2 		"/>
	</g>
</g>
</svg>
