<?xml version="1.0" encoding="utf-8"?>
<!-- Generator: Adobe Illustrator 24.0.2, SVG Export Plug-In . SVG Version: 6.00 Build 0)  -->
<svg version="1.1" id="navy-medals" xmlns="http://www.w3.org/2000/svg" xmlns:xlink="http://www.w3.org/1999/xlink" x="0px"
	 y="0px" viewBox="0 0 145.7 88" style="enable-background:new 0 0 145.7 88;" xml:space="preserve">
<style type="text/css">
	#navy-medals .st0{fill:#868686;stroke:#1D1D1B;stroke-width:1.1407;stroke-miterlimit:10;}
	#navy-medals .st1{fill:none;stroke:#1D1D1B;stroke-width:1.1407;stroke-miterlimit:10;}
	#navy-medals .st2{fill:#1D1D1B;}
	#navy-medals .st3{fill:none;stroke:#1D1D1B;stroke-width:0.9891;stroke-miterlimit:10;}
	#navy-medals .st4{fill:#00A162;stroke:#1D1D1B;stroke-width:0.9891;stroke-miterlimit:10;}
	#navy-medals .st5{fill:none;stroke:#1D1D1B;stroke-width:0.4945;stroke-miterlimit:10;}
	#navy-medals .st6{fill:#222160;stroke:#1D1D1B;stroke-miterlimit:10;}
	#navy-medals .st7{fill:#6586C4;}
	#navy-medals .st8{fill:#ED1C24;}
	#navy-medals .st9{fill:#868686;stroke:#1D1D1B;stroke-width:1.1506;stroke-miterlimit:10;}
	#navy-medals .st10{fill:none;stroke:#1D1D1B;stroke-width:1.1506;stroke-miterlimit:10;}
	#navy-medals .st11{fill:none;stroke:#1D1D1B;stroke-width:0.9976;stroke-miterlimit:10;}
	#navy-medals .st12{fill:#F79341;stroke:#1D1D1B;stroke-width:0.9891;stroke-miterlimit:10;}
	#navy-medals .st13{fill:#26266C;}
	#navy-medals .st14{fill:#719DD3;}
	#navy-medals .st15{fill:#E1BD68;stroke:#1D1D1B;stroke-miterlimit:10;}
	#navy-medals .st16{fill:#FFFFFF;}
	#navy-medals .st17{fill:#F2912E;}
	#navy-medals .st18{fill:#146E38;}
	#navy-medals .st19{fill:#EF8722;stroke:#1D1D1B;stroke-width:0.9891;stroke-miterlimit:10;}
	#navy-medals .st20{fill:none;stroke:#1F3A22;stroke-miterlimit:10;}
	#navy-medals .st21{fill:none;stroke:#D0D0D0;stroke-miterlimit:10;}
	#navy-medals .st22{fill:#38795E;stroke:#000000;stroke-miterlimit:10;}
	#navy-medals .st23{fill:#8AB2CC;}
	#navy-medals .st24{fill:#F3F3F3;}
	#navy-medals .st25{fill:#CF2026;}
	#navy-medals .st26{fill:#AA9274;}
	#navy-medals .st27{fill:#9E9E9E;stroke:#000000;stroke-miterlimit:10;}
	#navy-medals .st28{fill:#85B1DE;}
	#navy-medals .st29{fill:#066634;stroke:#000000;stroke-miterlimit:10;}
	#navy-medals .st30{clip-path:url(#SVGID_1_);fill:#5F8BC8;}
	#navy-medals .st31{clip-path:url(#SVGID_1_);fill:#26266C;}
	#navy-medals .st32{clip-path:url(#SVGID_1_);fill:#CF2026;}
	#navy-medals .st33{fill:#FEEC5E;stroke:#1D1D1B;stroke-width:0.9891;stroke-miterlimit:10;}
	#navy-medals .st34{fill:none;stroke:#2A2665;stroke-miterlimit:10;}
	#navy-medals .st35{fill:#E65125;stroke:#1D1D1B;stroke-width:1.1407;stroke-miterlimit:10;}
	#navy-medals .st36{fill:#F7B132;stroke:#F19220;stroke-width:0.1983;stroke-linecap:round;stroke-linejoin:round;stroke-miterlimit:10;}
	#navy-medals .st37{fill:none;stroke:#F19220;stroke-width:0.1983;stroke-linecap:round;stroke-linejoin:round;stroke-miterlimit:10;}
</style>
<g class="all-medals nineyears" data-medal="nineyears">
	<g>
		<circle class="st0" cx="125.2" cy="68.8" r="11.6"/>
		<line class="st1" x1="109.6" y1="47.6" x2="140.8" y2="47.6"/>
		<line class="st1" x1="125.2" y1="47.8" x2="125.2" y2="53.1"/>
		<circle class="st2" cx="109.8" cy="47.6" r="1.3"/>
		<circle class="st2" cx="140.3" cy="47.6" r="1.3"/>
		<path class="st3" d="M119.9,58.9l0-2.8c0-0.8,0.7-1.5,1.5-1.5l7.5,0c0.8,0,1.5,0.7,1.5,1.5l0,2.4"/>
		<path class="st2" d="M127.5,49.1l-4.5,0c-0.2,0-0.4-0.2-0.4-0.4l0-2.3c0-0.2,0.2-0.4,0.4-0.4l4.5,0c0.2,0,0.4,0.2,0.4,0.4l0,2.3
			C127.8,48.9,127.7,49.1,127.5,49.1z"/>
		<path class="st2" d="M127.2,55.8l-4.1,0c-0.3,0-0.6-0.3-0.6-0.6l0-3.8c0-0.3,0.3-0.6,0.6-0.6l4.1,0c0.3,0,0.6,0.3,0.6,0.6l0,3.8
			C127.8,55.6,127.6,55.8,127.2,55.8z"/>
		<path class="st4" d="M111,44.7l28.1,0c0,0-1.6-22.9,0.2-36.7l-28.8,0C110.5,8.1,108.8,30.8,111,44.7z"/>
		<path class="st2" d="M108.8,46.1l0-3.7c0-0.1,0.1-0.2,0.2-0.2l1.5,0c0.1,0,0.2,0.1,0.2,0.2l0,3.7c0,0.1-0.1,0.2-0.2,0.2l-1.5,0
			C108.9,46.3,108.8,46.2,108.8,46.1z"/>
		<path class="st2" d="M139.3,46l0-3.7c0-0.1,0.1-0.2,0.2-0.2l1.5,0c0.1,0,0.2,0.1,0.2,0.2l0,3.7c0,0.1-0.1,0.2-0.2,0.2l-1.5,0
			C139.4,46.3,139.3,46.2,139.3,46z"/>
	</g>
	<g>
		<path class="st5" d="M135.1,44.7c0,0-1.6-22.9,0.2-36.7"/>
		<path class="st5" d="M130.9,44.7c0,0-1.6-22.9,0.2-36.7"/>
		<path class="st5" d="M126.6,44.7c0,0-1.6-22.9,0.2-36.7"/>
		<path class="st5" d="M122.3,44.7c0,0-1.6-22.9,0.2-36.7"/>
		<path class="st5" d="M118,44.7c0,0-1.6-22.9,0.2-36.7"/>
		<path class="st5" d="M113.8,44.7c0,0-1.6-22.9,0.2-36.7"/>
	</g>
</g>
<g class="all-medals twentyyears" data-medal="twentyyears">
	<circle class="st0" cx="112.9" cy="68.8" r="11.6"/>
	<line class="st1" x1="97.3" y1="47.6" x2="128.5" y2="47.6"/>
	<line class="st1" x1="112.9" y1="47.8" x2="112.9" y2="53.1"/>
	<circle class="st2" cx="97.5" cy="47.6" r="1.3"/>
	<circle class="st2" cx="128" cy="47.6" r="1.3"/>
	<path class="st3" d="M107.6,58.9l0-2.8c0-0.8,0.7-1.5,1.5-1.5l7.5,0c0.8,0,1.5,0.7,1.5,1.5l0,2.4"/>
	<path class="st2" d="M115.2,49.1l-4.5,0c-0.2,0-0.4-0.2-0.4-0.4l0-2.3c0-0.2,0.2-0.4,0.4-0.4l4.5,0c0.2,0,0.4,0.2,0.4,0.4l0,2.3
		C115.5,48.9,115.4,49.1,115.2,49.1z"/>
	<path class="st2" d="M114.9,55.8l-4.1,0c-0.3,0-0.6-0.3-0.6-0.6l0-3.8c0-0.3,0.3-0.6,0.6-0.6l4.1,0c0.3,0,0.6,0.3,0.6,0.6l0,3.8
		C115.5,55.6,115.3,55.8,114.9,55.8z"/>
	<path class="st6" d="M98.7,44.7l28.1,0c0,0-1.6-22.9,0.2-36.7l-28.8,0C98.2,8.1,96.5,30.8,98.7,44.7z"/>
	<path class="st2" d="M96.5,46.1l0-3.7c0-0.1,0.1-0.2,0.2-0.2l1.5,0c0.1,0,0.2,0.1,0.2,0.2l0,3.7c0,0.1-0.1,0.2-0.2,0.2l-1.5,0
		C96.6,46.3,96.5,46.2,96.5,46.1z"/>
	<path class="st2" d="M127,46l0-3.7c0-0.1,0.1-0.2,0.2-0.2l1.5,0c0.1,0,0.2,0.1,0.2,0.2l0,3.7c0,0.1-0.1,0.2-0.2,0.2l-1.5,0
		C127.1,46.3,127,46.2,127,46z"/>
	<path class="st7" d="M117.6,8.5c0,0-1.3,6.5-1.3,16.3c0,5.7,0.9,12,1.3,19.3l8.5,0c0,0-1-32.4,0.6-35.7L117.6,8.5z"/>
	<path class="st8" d="M98.6,8.4l8.4,0.1c0,0-1,11.1-0.9,16.5c0,5.4,1.5,19.2,1.5,19.2l-8.6,0.1C99.1,44.3,96.9,20.9,98.6,8.4z"/>
</g>
<g class="all-medals thirtyyears" data-medal="thirtyyears">
	<circle class="st9" cx="102.2" cy="69" r="11.7"/>
	<line class="st10" x1="86.5" y1="47.6" x2="117.9" y2="47.6"/>
	<line class="st10" x1="102.2" y1="47.9" x2="102.2" y2="53.2"/>
	<circle class="st2" cx="86.7" cy="47.6" r="1.3"/>
	<circle class="st2" cx="117.5" cy="47.6" r="1.3"/>
	<path class="st11" d="M96.9,59l0-2.8c0-0.8,0.7-1.5,1.5-1.5l7.6,0c0.8,0,1.5,0.7,1.5,1.5l0,2.5"/>
	<path class="st2" d="M104.5,49.1l-4.6,0c-0.2,0-0.4-0.2-0.4-0.4l0-2.4c0-0.2,0.2-0.4,0.4-0.4l4.6,0c0.2,0,0.4,0.2,0.4,0.4l0,2.4
		C104.9,49,104.7,49.1,104.5,49.1z"/>
	<path class="st2" d="M104.3,55.9l-4.1,0c-0.3,0-0.6-0.3-0.6-0.6l0-3.9c0-0.3,0.3-0.6,0.6-0.6l4.1,0c0.3,0,0.6,0.3,0.6,0.6l0,3.9
		C104.9,55.7,104.6,55.9,104.3,55.9z"/>
	<path class="st12" d="M87.9,44.7l28.4,0c0,0-1.6-23.1,0.2-37l-29.1,0C87.4,7.8,85.7,30.6,87.9,44.7z"/>
	<path class="st2" d="M85.7,46.1l0-3.7c0-0.1,0.1-0.2,0.2-0.2l1.5,0c0.1,0,0.2,0.1,0.2,0.2l0,3.7c0,0.1-0.1,0.2-0.2,0.2l-1.5,0
		C85.8,46.3,85.7,46.2,85.7,46.1z"/>
	<path class="st2" d="M116.4,46l0-3.7c0-0.1,0.1-0.2,0.2-0.2l1.5,0c0.1,0,0.2,0.1,0.2,0.2l0,3.7c0,0.1-0.1,0.2-0.2,0.2l-1.5,0
		C116.6,46.3,116.4,46.2,116.4,46z"/>
	
		<rect x="99.9" y="8.2" transform="matrix(1 -3.782037e-03 3.782037e-03 1 -9.818187e-02 0.3842)" class="st13" width="3.2" height="35.9"/>
	
		<rect x="96.9" y="8.3" transform="matrix(1 -3.782037e-03 3.782037e-03 1 -9.861717e-02 0.3726)" class="st8" width="3.2" height="35.9"/>
	
		<rect x="103.1" y="8.2" transform="matrix(1 -3.782037e-03 3.782037e-03 1 -9.829952e-02 0.3962)" class="st14" width="3.2" height="35.9"/>
</g>
<g class="all-medals ii50" data-medal="ii50">
	<circle class="st9" cx="89.2" cy="69" r="11.7"/>
	<line class="st10" x1="73.5" y1="47.6" x2="104.9" y2="47.6"/>
	<line class="st10" x1="89.2" y1="47.9" x2="89.2" y2="53.2"/>
	<circle class="st2" cx="73.7" cy="47.6" r="1.3"/>
	<circle class="st2" cx="104.5" cy="47.6" r="1.3"/>
	<path class="st11" d="M83.9,59l0-2.8c0-0.8,0.7-1.5,1.5-1.5l7.6,0c0.8,0,1.5,0.7,1.5,1.5l0,2.5"/>
	<path class="st2" d="M91.5,49.1l-4.6,0c-0.2,0-0.4-0.2-0.4-0.4l0-2.4c0-0.2,0.2-0.4,0.4-0.4l4.6,0c0.2,0,0.4,0.2,0.4,0.4l0,2.4
		C91.9,49,91.7,49.1,91.5,49.1z"/>
	<path class="st2" d="M91.3,55.9l-4.1,0c-0.3,0-0.6-0.3-0.6-0.6l0-3.9c0-0.3,0.3-0.6,0.6-0.6l4.1,0c0.3,0,0.6,0.3,0.6,0.6l0,3.9
		C91.9,55.7,91.6,55.9,91.3,55.9z"/>
	<path class="st15" d="M74.9,44.7l28.4,0c0,0-1.6-23.1,0.2-37l-29.1,0C74.4,7.8,72.7,30.6,74.9,44.7z"/>
	<path class="st2" d="M72.7,46.1l0-3.7c0-0.1,0.1-0.2,0.2-0.2l1.5,0c0.1,0,0.2,0.1,0.2,0.2l0,3.7c0,0.1-0.1,0.2-0.2,0.2l-1.5,0
		C72.8,46.3,72.7,46.2,72.7,46.1z"/>
	<path class="st2" d="M103.5,46l0-3.7c0-0.1,0.1-0.2,0.2-0.2l1.5,0c0.1,0,0.2,0.1,0.2,0.2l0,3.7c0,0.1-0.1,0.2-0.2,0.2l-1.5,0
		C103.6,46.3,103.5,46.2,103.5,46z"/>
	
		<rect x="86.9" y="8.2" transform="matrix(1 -3.782037e-03 3.782037e-03 1 -9.827480e-02 0.335)" class="st16" width="3.2" height="35.9"/>
	
		<rect x="83.9" y="8.3" transform="matrix(1 -3.782037e-03 3.782037e-03 1 -9.871011e-02 0.3235)" class="st17" width="3.2" height="35.9"/>
	
		<rect x="90.1" y="8.2" transform="matrix(1 -3.782037e-03 3.782037e-03 1 -9.839245e-02 0.347)" class="st18" width="3.2" height="35.9"/>
</g>
<g class="all-medals ssm3" data-medal="ssm3">
	<circle class="st0" cx="78.6" cy="68.8" r="11.6"/>
	<line class="st1" x1="63" y1="47.6" x2="94.2" y2="47.6"/>
	<line class="st1" x1="78.6" y1="47.8" x2="78.6" y2="53.1"/>
	<circle class="st2" cx="63.2" cy="47.6" r="1.3"/>
	<circle class="st2" cx="93.7" cy="47.6" r="1.3"/>
	<path class="st3" d="M73.4,58.9l0-2.8c0-0.8,0.7-1.5,1.5-1.5l7.5,0c0.8,0,1.5,0.7,1.5,1.5l0,2.4"/>
	<path class="st2" d="M80.9,49.1l-4.5,0c-0.2,0-0.4-0.2-0.4-0.4l0-2.3c0-0.2,0.2-0.4,0.4-0.4l4.5,0c0.2,0,0.4,0.2,0.4,0.4l0,2.3
		C81.2,48.9,81.1,49.1,80.9,49.1z"/>
	<path class="st2" d="M80.6,55.8l-4.1,0c-0.3,0-0.6-0.3-0.6-0.6l0-3.8c0-0.3,0.3-0.6,0.6-0.6l4.1,0c0.3,0,0.6,0.3,0.6,0.6l0,3.8
		C81.2,55.6,81,55.8,80.6,55.8z"/>
	<path class="st19" d="M64.4,44.7l28.1,0c0,0-1.6-22.9,0.2-36.7l-28.8,0C63.9,8.1,62.3,30.8,64.4,44.7z"/>
	<path class="st2" d="M62.2,46.1l0-3.7c0-0.1,0.1-0.2,0.2-0.2l1.5,0c0.1,0,0.2,0.1,0.2,0.2l0,3.7c0,0.1-0.1,0.2-0.2,0.2l-1.5,0
		C62.4,46.3,62.2,46.2,62.2,46.1z"/>
	<path class="st2" d="M92.7,46l0-3.7c0-0.1,0.1-0.2,0.2-0.2l1.5,0c0.1,0,0.2,0.1,0.2,0.2l0,3.7c0,0.1-0.1,0.2-0.2,0.2l-1.5,0
		C92.8,46.3,92.7,46.2,92.7,46z"/>
	<path class="st20" d="M80.8,8.7c0,0-3.5,15.6-0.1,35.6"/>
	<path class="st21" d="M73.2,8.6c0,0-2.9,9.1-0.5,35.4"/>
</g>
<g class="all-medals opm" data-medal="opm">
	<circle class="st0" cx="68.6" cy="68.8" r="11.6"/>
	<line class="st1" x1="53" y1="47.6" x2="84.1" y2="47.6"/>
	<line class="st1" x1="68.5" y1="47.8" x2="68.6" y2="53.1"/>
	<circle class="st2" cx="53.2" cy="47.6" r="1.3"/>
	<circle class="st2" cx="83.7" cy="47.6" r="1.3"/>
	<path class="st3" d="M63.3,58.9l0-2.8c0-0.8,0.7-1.5,1.5-1.5l7.5,0c0.8,0,1.5,0.7,1.5,1.5l0,2.4"/>
	<path class="st2" d="M70.8,49.1l-4.5,0c-0.2,0-0.4-0.2-0.4-0.4l0-2.3c0-0.2,0.2-0.4,0.4-0.4l4.5,0c0.2,0,0.4,0.2,0.4,0.4l0,2.3
		C71.2,48.9,71,49.1,70.8,49.1z"/>
	<path class="st2" d="M70.6,55.8l-4.1,0c-0.3,0-0.6-0.3-0.6-0.6l0-3.8c0-0.3,0.3-0.6,0.6-0.6l4.1,0c0.3,0,0.6,0.3,0.6,0.6l0,3.8
		C71.2,55.6,70.9,55.8,70.6,55.8z"/>
	<path class="st22" d="M54.3,44.7l28.1,0c0,0-1.6-22.9,0.2-36.7l-28.8,0C53.8,8.1,52.2,30.8,54.3,44.7z"/>
	<path class="st2" d="M52.2,46.1l0-3.7c0-0.1,0.1-0.2,0.2-0.2l1.5,0c0.1,0,0.2,0.1,0.2,0.2l0,3.7c0,0.1-0.1,0.2-0.2,0.2l-1.5,0
		C52.3,46.3,52.2,46.2,52.2,46.1z"/>
	<path class="st2" d="M82.7,46l0-3.7c0-0.1,0.1-0.2,0.2-0.2l1.5,0c0.1,0,0.2,0.1,0.2,0.2l0,3.7c0,0.1-0.1,0.2-0.2,0.2l-1.5,0
		C82.8,46.3,82.7,46.2,82.7,46z"/>
	<path class="st23" d="M74.6,8.5c0,0-0.7,27.1,0.2,35.8l7-0.1c0,0-0.9-33.3,0.4-35.6L74.6,8.5z"/>
	<path class="st24" d="M72.7,8.5l1.8-0.1c0,0-0.4,33.2,0.4,35.8l-2.3-0.1C72.6,44.2,72.1,9.4,72.7,8.5z"/>
	<path class="st25" d="M61.5,8.7l1.8-0.1c0,0-0.4,33,0.4,35.5l-2.4,0C61.3,44.2,60.9,9.6,61.5,8.7z"/>
	<path class="st26" d="M61.5,8.7l-7.2-0.2c0,0-0.9,28.8,0.5,35.6l6.6,0C61.3,44.2,60.5,10.8,61.5,8.7z"/>
</g>
<g class="all-medals ovm" data-medal="ovm">
	<circle class="st0" cx="57.6" cy="68.8" r="11.6"/>
	<line class="st1" x1="42" y1="47.6" x2="73.1" y2="47.6"/>
	<line class="st1" x1="57.5" y1="47.8" x2="57.6" y2="53.1"/>
	<circle class="st2" cx="42.2" cy="47.6" r="1.3"/>
	<circle class="st2" cx="72.7" cy="47.6" r="1.3"/>
	<path class="st3" d="M52.3,58.9l0-2.8c0-0.8,0.7-1.5,1.5-1.5l7.5,0c0.8,0,1.5,0.7,1.5,1.5l0,2.4"/>
	<path class="st2" d="M59.8,49.1l-4.5,0c-0.2,0-0.4-0.2-0.4-0.4l0-2.3c0-0.2,0.2-0.4,0.4-0.4l4.5,0c0.2,0,0.4,0.2,0.4,0.4l0,2.3
		C60.2,48.9,60,49.1,59.8,49.1z"/>
	<path class="st2" d="M59.6,55.8l-4.1,0c-0.3,0-0.6-0.3-0.6-0.6l0-3.8c0-0.3,0.3-0.6,0.6-0.6l4.1,0c0.3,0,0.6,0.3,0.6,0.6l0,3.8
		C60.2,55.6,59.9,55.8,59.6,55.8z"/>
	<path class="st27" d="M43.3,44.7l28.1,0c0,0-1.6-22.9,0.2-36.7l-28.8,0C42.8,8.1,41.2,30.8,43.3,44.7z"/>
	<path class="st2" d="M41.2,46.1l0-3.7c0-0.1,0.1-0.2,0.2-0.2l1.5,0c0.1,0,0.2,0.1,0.2,0.2l0,3.7c0,0.1-0.1,0.2-0.2,0.2l-1.5,0
		C41.3,46.3,41.2,46.2,41.2,46.1z"/>
	<path class="st2" d="M71.7,46l0-3.7c0-0.1,0.1-0.2,0.2-0.2l1.5,0c0.1,0,0.2,0.1,0.2,0.2l0,3.7c0,0.1-0.1,0.2-0.2,0.2l-1.5,0
		C71.8,46.3,71.7,46.2,71.7,46z"/>
	<path class="st28" d="M61.7,8.5l1.8-0.1c0,0-0.4,33.2,0.4,35.8l-2.3-0.1C61.6,44.2,61.1,9.4,61.7,8.5z"/>
	<path class="st13" d="M56,8.5l1.8-0.1c0,0-0.4,33.2,0.4,35.8l-2.3-0.1C55.9,44.2,55.4,9.4,56,8.5z"/>
	<path class="st25" d="M50.5,8.7l1.8-0.1c0,0-0.4,33,0.4,35.5l-2.4,0C50.3,44.2,49.9,9.6,50.5,8.7z"/>
</g>
<g class="all-medals ssm1" data-medal="ssm1">
	<circle class="st0" cx="46.9" cy="68.8" r="11.6"/>
	<line class="st1" x1="31.3" y1="47.6" x2="62.4" y2="47.6"/>
	<line class="st1" x1="46.9" y1="47.8" x2="46.9" y2="53.1"/>
	<circle class="st2" cx="31.5" cy="47.6" r="1.3"/>
	<circle class="st2" cx="62" cy="47.6" r="1.3"/>
	<path class="st3" d="M41.6,58.9l0-2.8c0-0.8,0.7-1.5,1.5-1.5l7.5,0c0.8,0,1.5,0.7,1.5,1.5l0,2.4"/>
	<path class="st2" d="M49.1,49.1l-4.5,0c-0.2,0-0.4-0.2-0.4-0.4l0-2.3c0-0.2,0.2-0.4,0.4-0.4l4.5,0c0.2,0,0.4,0.2,0.4,0.4l0,2.3
		C49.5,48.9,49.3,49.1,49.1,49.1z"/>
	<path class="st2" d="M48.9,55.8l-4.1,0c-0.3,0-0.6-0.3-0.6-0.6l0-3.8c0-0.3,0.3-0.6,0.6-0.6l4.1,0c0.3,0,0.6,0.3,0.6,0.6l0,3.8
		C49.5,55.6,49.2,55.8,48.9,55.8z"/>
	<path class="st2" d="M30.5,46.1l0-3.7c0-0.1,0.1-0.2,0.2-0.2l1.5,0c0.1,0,0.2,0.1,0.2,0.2l0,3.7c0,0.1-0.1,0.2-0.2,0.2l-1.5,0
		C30.6,46.3,30.5,46.2,30.5,46.1z"/>
	<path class="st2" d="M61,46l0-3.7c0-0.1,0.1-0.2,0.2-0.2l1.5,0c0.1,0,0.2,0.1,0.2,0.2l0,3.7c0,0.1-0.1,0.2-0.2,0.2l-1.5,0
		C61.1,46.3,61,46.2,61,46z"/>
	<g>
		<path class="st29" d="M32.7,44.7l28.1,0c0,0-1.6-22.9,0.2-36.7l-28.8,0C32.1,8.1,30.5,30.8,32.7,44.7z"/>
		<g>
			<defs>
				<polygon id="SVGID_3_" points="32.6,8.6 60.2,8.6 60.4,44.2 33,44.1 				"/>
			</defs>
			<clipPath id="SVGID_1_">
				<use xlink:href="#SVGID_3_"  style="overflow:visible;"/>
			</clipPath>
			
				<rect x="52.6" y="8.1" transform="matrix(1 -7.797641e-03 7.797641e-03 1 -0.2038 0.4295)" class="st30" width="4.7" height="36.6"/>
			
				<rect x="43.6" y="8.1" transform="matrix(1 -7.797641e-03 7.797641e-03 1 -0.2041 0.3594)" class="st31" width="4.7" height="36.6"/>
			
				<rect x="35.6" y="8" transform="matrix(1 -7.797641e-03 7.797641e-03 1 -0.2043 0.297)" class="st32" width="4.7" height="36.7"/>
		</g>
	</g>
</g>
<g class="all-medals avsm" data-medal="avsm">
	<circle class="st0" cx="34.2" cy="68.8" r="11.6"/>
	<line class="st1" x1="18.6" y1="47.6" x2="49.8" y2="47.6"/>
	<line class="st1" x1="34.2" y1="47.9" x2="34.2" y2="53.1"/>
	<circle class="st2" cx="18.9" cy="47.6" r="1.3"/>
	<circle class="st2" cx="49.3" cy="47.6" r="1.3"/>
	<path class="st3" d="M29,58.9l0-2.8c0-0.8,0.7-1.5,1.5-1.5l7.5,0c0.8,0,1.5,0.7,1.5,1.5l0,2.4"/>
	<path class="st2" d="M36.5,49.1l-4.5,0c-0.2,0-0.4-0.2-0.4-0.4l0-2.3c0-0.2,0.2-0.4,0.4-0.4l4.5,0c0.2,0,0.4,0.2,0.4,0.4l0,2.3
		C36.8,48.9,36.7,49.1,36.5,49.1z"/>
	<path class="st2" d="M36.2,55.8l-4.1,0c-0.3,0-0.6-0.3-0.6-0.6l0-3.8c0-0.3,0.3-0.6,0.6-0.6l4.1,0c0.3,0,0.6,0.3,0.6,0.6l0,3.8
		C36.9,55.6,36.6,55.8,36.2,55.8z"/>
	<path class="st33" d="M20,44.7l28.1,0c0,0-1.6-22.9,0.2-36.7l-28.8,0C19.5,8.1,17.9,30.8,20,44.7z"/>
	<path class="st2" d="M17.9,46.1l0-3.7c0-0.1,0.1-0.2,0.2-0.2l1.5,0c0.1,0,0.2,0.1,0.2,0.2l0,3.7c0,0.1-0.1,0.2-0.2,0.2l-1.5,0
		C18,46.3,17.9,46.2,17.9,46.1z"/>
	<path class="st2" d="M48.3,46l0-3.7c0-0.1,0.1-0.2,0.2-0.2l1.5,0c0.1,0,0.2,0.1,0.2,0.2l0,3.7c0,0.1-0.1,0.2-0.2,0.2l-1.5,0
		C48.4,46.3,48.3,46.2,48.3,46z"/>
	<path class="st34" d="M29.9,44.2c0,0-2.9-18.9,0-36.2"/>
	<path class="st34" d="M36.6,44.7c0,0-2.9-18.9,0-36.2"/>
</g>
<g class="all-medals pvsm" data-medal="pvsm">
	<circle class="st35" cx="22" cy="68.8" r="11.6"/>
	<line class="st1" x1="6.4" y1="47.6" x2="37.6" y2="47.6"/>
	<line class="st1" x1="22" y1="47.8" x2="22" y2="53.1"/>
	<circle class="st2" cx="6.6" cy="47.6" r="1.3"/>
	<circle class="st2" cx="37.1" cy="47.6" r="1.3"/>
	<path class="st3" d="M16.7,58.9l0-2.8c0-0.8,0.7-1.5,1.5-1.5l7.5,0c0.8,0,1.5,0.7,1.5,1.5l0,2.4"/>
	<path class="st2" d="M24.3,49.1l-4.5,0c-0.2,0-0.4-0.2-0.4-0.4l0-2.3c0-0.2,0.2-0.4,0.4-0.4l4.5,0c0.2,0,0.4,0.2,0.4,0.4l0,2.3
		C24.6,48.9,24.5,49.1,24.3,49.1z"/>
	<path class="st2" d="M24,55.8l-4.1,0c-0.3,0-0.6-0.3-0.6-0.6l0-3.8c0-0.3,0.3-0.6,0.6-0.6l4.1,0c0.3,0,0.6,0.3,0.6,0.6l0,3.8
		C24.6,55.6,24.4,55.8,24,55.8z"/>
	<path class="st33" d="M7.8,44.7l28.1,0c0,0-1.6-22.9,0.2-36.7l-28.8,0C7.3,8.1,5.6,30.8,7.8,44.7z"/>
	<path class="st2" d="M5.6,46.1l0-3.7c0-0.1,0.1-0.2,0.2-0.2l1.5,0c0.1,0,0.2,0.1,0.2,0.2l0,3.7c0,0.1-0.1,0.2-0.2,0.2l-1.5,0
		C5.7,46.3,5.6,46.2,5.6,46.1z"/>
	<path class="st2" d="M36.1,46l0-3.7c0-0.1,0.1-0.2,0.2-0.2l1.5,0c0.1,0,0.2,0.1,0.2,0.2l0,3.7c0,0.1-0.1,0.2-0.2,0.2l-1.5,0
		C36.2,46.3,36.1,46.2,36.1,46z"/>
	<path class="st34" d="M20.7,44.3c0,0-2.9-18.9,0-36.2"/>
	<g>
		<polygon class="st36" points="22,72.8 16.6,76 17.9,69.8 13.2,65.6 19.5,65 22,59.2 24.5,65 30.8,65.6 26.1,69.8 27.5,75.9 		"/>
		<polyline class="st37" points="19.5,65 22,68.4 17.9,69.8 		"/>
		<polyline class="st37" points="22,72.8 22,68.4 26.1,69.8 		"/>
		<polyline class="st37" points="24.5,65 22,68.4 16.6,76 		"/>
		<polyline class="st37" points="27.5,75.9 22,68.4 30.8,65.6 		"/>
		<polyline class="st37" points="13.2,65.6 22,68.4 22,59.2 		"/>
	</g>
</g>
</svg>
