<?xml version="1.0" encoding="utf-8"?>
<!-- Generator: Adobe Illustrator 24.0.2, SVG Export Plug-In . SVG Version: 6.00 Build 0)  -->
<svg version="1.1" id="Layer_1" xmlns="http://www.w3.org/2000/svg" xmlns:xlink="http://www.w3.org/1999/xlink" x="0px" y="0px"
	 viewBox="0 0 73 134" style="enable-background:new 0 0 73 134;" xml:space="preserve">
<style type="text/css">
	.st0{fill:#F15A29;stroke:#000000;stroke-width:1.8003;stroke-miterlimit:10;}
	.st1{fill:none;stroke:#000000;stroke-width:1.8003;stroke-miterlimit:10;}
	.st2{fill:none;stroke:#000000;stroke-width:1.5609;stroke-miterlimit:10;}
	.st3{fill:#FBF068;stroke:#000000;stroke-width:1.5609;stroke-miterlimit:10;}
	.st4{fill:none;stroke:#000000;stroke-width:0.7805;stroke-linecap:round;stroke-linejoin:round;stroke-miterlimit:10;}
	.st5{fill:#FBB040;stroke:#F7941D;stroke-width:0.313;stroke-linecap:round;stroke-linejoin:round;stroke-miterlimit:10;}
	.st6{fill:none;stroke:#F7941D;stroke-width:0.313;stroke-linecap:round;stroke-linejoin:round;stroke-miterlimit:10;}
</style>
<g id="medal1">
	<circle class="st0" cx="35.7" cy="108.1" r="18.3"/>
	<line class="st1" x1="11" y1="74.7" x2="60.1" y2="74.5"/>
	<line class="st1" x1="35.5" y1="75" x2="35.6" y2="83.3"/>
	<circle cx="11.3" cy="74.7" r="2.1"/>
	<circle cx="59.4" cy="74.5" r="2.1"/>
	<path class="st2" d="M27.3,92.4l0-4.4c0-1.3,1.1-2.4,2.4-2.4l11.9,0c1.3,0,2.4,1.1,2.4,2.4l0,3.8"/>
	<path d="M37.3,77l-3.5,0c-1.3,0-2.4-1.1-2.4-2.4v0c0-1.3,1.1-2.4,2.4-2.4l3.5,0c1.3,0,2.4,1.1,2.4,2.4v0C39.7,75.9,38.6,77,37.3,77
		z"/>
	<path d="M35.8,87.6l-0.3,0c-2.2,0-4-1.8-4-4v0c0-2.2,1.8-4,4-4l0.3,0c2.2,0,4,1.8,4,4v0C39.7,85.8,38,87.6,35.8,87.6z"/>
	<path class="st3" d="M13.1,70.1L57.5,70c0,0-2.6-36.1,0.2-57.9l-45.5,0.2C12.2,12.3,9.7,48.1,13.1,70.1z"/>
	<path d="M9.7,71l0-3.4c0-0.9,0.7-1.6,1.6-1.6h0c0.9,0,1.6,0.7,1.6,1.6l0,3.4c0,0.9-0.7,1.6-1.6,1.6h0C10.4,72.6,9.7,71.9,9.7,71z"
		/>
	<path d="M57.8,70.8l0-3.4c0-0.9,0.7-1.6,1.6-1.6l0,0c0.9,0,1.6,0.7,1.6,1.6l0,3.4c0,0.9-0.7,1.6-1.6,1.6h0
		C58.5,72.4,57.8,71.7,57.8,70.8z"/>
	<path class="st4" d="M33.5,69.4c0,0-4.6-29.7-0.2-57.1"/>
	<g>
		<polygon class="st5" points="35.7,114.3 27.1,119.4 29.2,109.6 21.8,103 31.7,102 35.6,92.9 39.6,102 49.6,102.9 42.1,109.6 
			44.3,119.3 		"/>
		<polyline class="st6" points="31.7,102 35.6,107.4 29.2,109.6 		"/>
		<polyline class="st6" points="35.7,114.3 35.6,107.4 42.1,109.6 		"/>
		<polyline class="st6" points="39.6,102 35.6,107.4 27.1,119.4 		"/>
		<polyline class="st6" points="44.3,119.3 35.6,107.4 49.6,102.9 		"/>
		<polyline class="st6" points="21.8,103 35.6,107.4 35.6,92.9 		"/>
	</g>
</g>
</svg>
